# MagicaVoxel @ Ephtracy

# group
o 

# material
mtllib blue_truck.mtl
usemtl palette

# normals
vn -1 0 0
vn 1 0 0
vn 0 0 1
vn 0 0 -1
vn 0 -1 0
vn 0 1 0

# texcoords
vt 0.728516 0.5
vt 0.841797 0.5
vt 0.958984 0.5
vt 0.962891 0.5
vt 0.966797 0.5
vt 0.994141 0.5

# verts
v 1.7 2.3 -0.6
v 1.7 2.3 -0.7
v 1.7 2.5 -0.6
v 1.7 2.5 -0.7
v 1.8 2.1 -0.7
v 1.8 2.1 -1
v 1.8 2.1 -1.4
v 1.8 2.1 -1.7
v 1.8 2.1 -3.3
v 1.8 2.1 -3.6
v 1.8 2.2 -0.5
v 1.8 2.2 -0.6
v 1.8 2.2 -0.7
v 1.8 2.2 -0.8
v 1.8 2.2 -0.9
v 1.8 2.2 -1
v 1.8 2.2 -1.2
v 1.8 2.2 -1.5
v 1.8 2.2 -1.6
v 1.8 2.2 -3.4
v 1.8 2.2 -3.5
v 1.8 2.3 -0.6
v 1.8 2.3 -0.7
v 1.8 2.3 -0.8
v 1.8 2.3 -0.9
v 1.8 2.3 -1.3
v 1.8 2.3 -1.4
v 1.8 2.3 -1.5
v 1.8 2.3 -1.6
v 1.8 2.3 -1.7
v 1.8 2.3 -3.3
v 1.8 2.3 -3.4
v 1.8 2.3 -3.5
v 1.8 2.4 -0.5
v 1.8 2.4 -0.6
v 1.8 2.4 -0.7
v 1.8 2.4 -1
v 1.8 2.4 -1.4
v 1.8 2.4 -1.7
v 1.8 2.4 -3.3
v 1.8 2.4 -3.6
v 1.8 2.5 -0.5
v 1.8 2.5 -0.6
v 1.8 2.5 -0.7
v 1.8 2.5 -0.8
v 1.8 2.7 -0.5
v 1.8 2.7 -0.8
v 1.8 2.9 -0.5
v 1.8 2.9 -1.2
v 1.8 3.1 -1.3
v 1.8 3.1 -3.6
v 1.9 2.2 -1.3
v 1.9 2.2 -1.4
v 1.9 2.2 -1.7
v 1.9 2.2 -3.3
v 1.9 2.3 -1.3
v 1.9 2.3 -1.4
v 1.9 2.3 -1.7
v 1.9 2.3 -3.3
v 2 2.4 -1.2
v 2 2.4 -1.3
v 2 2.8 -1.2
v 2 2.8 -1.3
v 2.1 2.9 -0.8
v 2.1 2.9 -1.2
v 2.1 3 -0.8
v 2.1 3 -1
v 2.1 3.1 -1
v 2.1 3.1 -1.2
v 2.5 2.1 -0.7
v 2.5 2.1 -1
v 2.5 2.1 -1.4
v 2.5 2.1 -1.7
v 2.5 2.1 -3.3
v 2.5 2.1 -3.6
v 2.5 2.2 -0.7
v 2.5 2.2 -1
v 2.5 2.2 -1.4
v 2.5 2.2 -1.7
v 2.5 2.2 -3.3
v 2.5 2.2 -3.5
v 2.5 2.3 -3.5
v 2.5 2.3 -3.6
v 1.9 2.1 -0.7
v 1.9 2.1 -1
v 1.9 2.1 -1.4
v 1.9 2.1 -1.7
v 1.9 2.1 -3.3
v 1.9 2.1 -3.6
v 1.9 2.2 -0.7
v 1.9 2.2 -1
v 1.9 2.2 -1.4
v 1.9 2.2 -1.7
v 1.9 2.2 -3.3
v 1.9 2.2 -3.5
v 1.9 2.3 -3.5
v 1.9 2.3 -3.6
v 2.3 2.9 -0.8
v 2.3 2.9 -1.2
v 2.3 3 -0.8
v 2.3 3 -1
v 2.3 3.1 -1
v 2.3 3.1 -1.2
v 2.4 2.4 -1.2
v 2.4 2.4 -1.3
v 2.4 2.8 -1.2
v 2.4 2.8 -1.3
v 2.5 2.2 -1.3
v 2.5 2.2 -1.4
v 2.5 2.2 -1.7
v 2.5 2.2 -3.3
v 2.5 2.3 -1.3
v 2.5 2.3 -1.4
v 2.5 2.3 -1.7
v 2.5 2.3 -3.3
v 2.6 2.1 -0.7
v 2.6 2.1 -1
v 2.6 2.1 -1.4
v 2.6 2.1 -1.7
v 2.6 2.1 -3.3
v 2.6 2.1 -3.6
v 2.6 2.2 -0.5
v 2.6 2.2 -0.6
v 2.6 2.2 -0.7
v 2.6 2.2 -0.8
v 2.6 2.2 -0.9
v 2.6 2.2 -1
v 2.6 2.2 -1.2
v 2.6 2.2 -1.5
v 2.6 2.2 -1.6
v 2.6 2.2 -3.4
v 2.6 2.2 -3.5
v 2.6 2.3 -0.6
v 2.6 2.3 -0.7
v 2.6 2.3 -0.8
v 2.6 2.3 -0.9
v 2.6 2.3 -1.3
v 2.6 2.3 -1.4
v 2.6 2.3 -1.5
v 2.6 2.3 -1.6
v 2.6 2.3 -1.7
v 2.6 2.3 -3.3
v 2.6 2.3 -3.4
v 2.6 2.3 -3.5
v 2.6 2.4 -0.5
v 2.6 2.4 -0.6
v 2.6 2.4 -0.7
v 2.6 2.4 -1
v 2.6 2.4 -1.4
v 2.6 2.4 -1.7
v 2.6 2.4 -3.3
v 2.6 2.4 -3.6
v 2.6 2.5 -0.5
v 2.6 2.5 -0.6
v 2.6 2.5 -0.7
v 2.6 2.5 -0.8
v 2.6 2.7 -0.5
v 2.6 2.7 -0.8
v 2.6 2.9 -0.5
v 2.6 2.9 -1.2
v 2.6 3.1 -1.3
v 2.6 3.1 -3.6
v 2.7 2.3 -0.6
v 2.7 2.3 -0.7
v 2.7 2.5 -0.6
v 2.7 2.5 -0.7
v 1.8 2.2 -0.5
v 1.8 2.4 -0.5
v 1.8 2.5 -0.5
v 1.8 2.7 -0.5
v 1.8 2.9 -0.5
v 2 2.2 -0.5
v 2 2.4 -0.5
v 2.4 2.2 -0.5
v 2.4 2.4 -0.5
v 2.6 2.2 -0.5
v 2.6 2.4 -0.5
v 2.6 2.5 -0.5
v 2.6 2.7 -0.5
v 2.6 2.9 -0.5
v 1.7 2.3 -0.6
v 1.7 2.5 -0.6
v 1.8 2.3 -0.6
v 1.8 2.4 -0.6
v 1.8 2.5 -0.6
v 2.6 2.3 -0.6
v 2.6 2.4 -0.6
v 2.6 2.5 -0.6
v 2.7 2.3 -0.6
v 2.7 2.5 -0.6
v 1.8 2.1 -0.7
v 1.8 2.2 -0.7
v 1.9 2.1 -0.7
v 1.9 2.2 -0.7
v 2.5 2.1 -0.7
v 2.5 2.2 -0.7
v 2.6 2.1 -0.7
v 2.6 2.2 -0.7
v 2.1 2.9 -0.8
v 2.1 3 -0.8
v 2.3 2.9 -0.8
v 2.3 3 -0.8
v 2.1 3 -1
v 2.1 3.1 -1
v 2.3 3 -1
v 2.3 3.1 -1
v 1.8 2.3 -1.3
v 1.8 3.1 -1.3
v 1.9 2.2 -1.3
v 1.9 2.3 -1.3
v 2 2.4 -1.3
v 2 2.8 -1.3
v 2.4 2.4 -1.3
v 2.4 2.8 -1.3
v 2.5 2.2 -1.3
v 2.5 2.3 -1.3
v 2.6 2.3 -1.3
v 2.6 3.1 -1.3
v 1.8 2.1 -1.4
v 1.8 2.3 -1.4
v 1.9 2.1 -1.4
v 1.9 2.2 -1.4
v 1.9 2.3 -1.4
v 2.5 2.1 -1.4
v 2.5 2.2 -1.4
v 2.5 2.3 -1.4
v 2.6 2.1 -1.4
v 2.6 2.3 -1.4
v 1.8 2.1 -3.3
v 1.8 2.3 -3.3
v 1.9 2.1 -3.3
v 1.9 2.2 -3.3
v 1.9 2.3 -3.3
v 2.5 2.1 -3.3
v 2.5 2.2 -3.3
v 2.5 2.3 -3.3
v 2.6 2.1 -3.3
v 2.6 2.3 -3.3
v 1.7 2.3 -0.7
v 1.7 2.5 -0.7
v 1.8 2.3 -0.7
v 1.8 2.4 -0.7
v 1.8 2.5 -0.7
v 2.6 2.3 -0.7
v 2.6 2.4 -0.7
v 2.6 2.5 -0.7
v 2.7 2.3 -0.7
v 2.7 2.5 -0.7
v 1.8 2.1 -1
v 1.8 2.2 -1
v 1.9 2.1 -1
v 1.9 2.2 -1
v 2.5 2.1 -1
v 2.5 2.2 -1
v 2.6 2.1 -1
v 2.6 2.2 -1
v 1.8 2.2 -1.2
v 1.8 2.9 -1.2
v 1.9 2.3 -1.2
v 1.9 2.8 -1.2
v 2 2.4 -1.2
v 2 2.8 -1.2
v 2.1 2.8 -1.2
v 2.1 2.9 -1.2
v 2.1 3.1 -1.2
v 2.3 2.8 -1.2
v 2.3 2.9 -1.2
v 2.3 3.1 -1.2
v 2.4 2.4 -1.2
v 2.4 2.8 -1.2
v 2.5 2.3 -1.2
v 2.5 2.8 -1.2
v 2.6 2.2 -1.2
v 2.6 2.9 -1.2
v 1.8 2.1 -1.7
v 1.8 2.3 -1.7
v 1.9 2.1 -1.7
v 1.9 2.2 -1.7
v 1.9 2.3 -1.7
v 2.5 2.1 -1.7
v 2.5 2.2 -1.7
v 2.5 2.3 -1.7
v 2.6 2.1 -1.7
v 2.6 2.3 -1.7
v 1.9 2.2 -3.5
v 1.9 2.3 -3.5
v 2.5 2.2 -3.5
v 2.5 2.3 -3.5
v 1.8 2.1 -3.6
v 1.8 2.4 -3.6
v 1.8 3.1 -3.6
v 1.9 2.1 -3.6
v 1.9 2.3 -3.6
v 1.9 2.4 -3.6
v 2.5 2.1 -3.6
v 2.5 2.3 -3.6
v 2.5 2.4 -3.6
v 2.6 2.1 -3.6
v 2.6 2.4 -3.6
v 2.6 3.1 -3.6
v 1.8 2.1 -0.7
v 1.9 2.1 -0.7
v 2.5 2.1 -0.7
v 2.6 2.1 -0.7
v 1.8 2.1 -1
v 1.9 2.1 -1
v 2.5 2.1 -1
v 2.6 2.1 -1
v 1.8 2.1 -1.4
v 1.9 2.1 -1.4
v 2.5 2.1 -1.4
v 2.6 2.1 -1.4
v 1.8 2.1 -1.7
v 1.9 2.1 -1.7
v 2.5 2.1 -1.7
v 2.6 2.1 -1.7
v 1.8 2.1 -3.3
v 1.9 2.1 -3.3
v 2.5 2.1 -3.3
v 2.6 2.1 -3.3
v 1.8 2.1 -3.6
v 1.9 2.1 -3.6
v 2.5 2.1 -3.6
v 2.6 2.1 -3.6
v 1.8 2.2 -0.5
v 2 2.2 -0.5
v 2.4 2.2 -0.5
v 2.6 2.2 -0.5
v 1.8 2.2 -0.6
v 2 2.2 -0.6
v 2.4 2.2 -0.6
v 2.6 2.2 -0.6
v 1.8 2.2 -0.7
v 1.9 2.2 -0.7
v 2.5 2.2 -0.7
v 2.6 2.2 -0.7
v 1.8 2.2 -1
v 1.9 2.2 -1
v 2.5 2.2 -1
v 2.6 2.2 -1
v 1.8 2.2 -1.2
v 2.6 2.2 -1.2
v 1.9 2.2 -1.3
v 2.5 2.2 -1.3
v 1.9 2.2 -1.4
v 2.5 2.2 -1.4
v 1.9 2.2 -1.7
v 2.5 2.2 -1.7
v 1.9 2.2 -3.3
v 2.5 2.2 -3.3
v 1.9 2.2 -3.5
v 2.5 2.2 -3.5
v 1.7 2.3 -0.6
v 1.8 2.3 -0.6
v 2.6 2.3 -0.6
v 2.7 2.3 -0.6
v 1.7 2.3 -0.7
v 1.8 2.3 -0.7
v 2.6 2.3 -0.7
v 2.7 2.3 -0.7
v 1.8 2.3 -1.3
v 1.9 2.3 -1.3
v 2.5 2.3 -1.3
v 2.6 2.3 -1.3
v 1.8 2.3 -1.4
v 1.9 2.3 -1.4
v 2.5 2.3 -1.4
v 2.6 2.3 -1.4
v 1.8 2.3 -1.7
v 1.9 2.3 -1.7
v 2.5 2.3 -1.7
v 2.6 2.3 -1.7
v 1.8 2.3 -3.3
v 1.9 2.3 -3.3
v 2.5 2.3 -3.3
v 2.6 2.3 -3.3
v 1.9 2.3 -3.5
v 2.5 2.3 -3.5
v 1.9 2.3 -3.6
v 2.5 2.3 -3.6
v 2 2.4 -1.2
v 2.4 2.4 -1.2
v 2 2.4 -1.3
v 2.4 2.4 -1.3
v 1.7 2.5 -0.6
v 1.8 2.5 -0.6
v 2.6 2.5 -0.6
v 2.7 2.5 -0.6
v 1.7 2.5 -0.7
v 1.8 2.5 -0.7
v 2.6 2.5 -0.7
v 2.7 2.5 -0.7
v 2 2.8 -1.2
v 2.1 2.8 -1.2
v 2.3 2.8 -1.2
v 2.4 2.8 -1.2
v 2 2.8 -1.3
v 2.4 2.8 -1.3
v 1.8 2.9 -0.5
v 2.6 2.9 -0.5
v 2.1 2.9 -0.8
v 2.3 2.9 -0.8
v 1.8 2.9 -1.2
v 2.1 2.9 -1.2
v 2.3 2.9 -1.2
v 2.6 2.9 -1.2
v 2.1 3 -0.8
v 2.3 3 -0.8
v 2.1 3 -1
v 2.3 3 -1
v 2.1 3.1 -1
v 2.3 3.1 -1
v 2.1 3.1 -1.2
v 2.3 3.1 -1.2
v 1.8 3.1 -1.3
v 2.6 3.1 -1.3
v 1.8 3.1 -3.6
v 2.6 3.1 -3.6

# faces
f 3/1/1 2/1/1 1/1/1
f 4/1/1 2/1/1 3/1/1
f 13/6/1 6/6/1 5/6/1
f 14/6/1 6/6/1 13/6/1
f 15/6/1 6/6/1 14/6/1
f 16/6/1 6/6/1 15/6/1
f 18/6/1 8/6/1 7/6/1
f 19/6/1 8/6/1 18/6/1
f 20/6/1 10/6/1 9/6/1
f 21/6/1 10/6/1 20/6/1
f 22/3/1 12/3/1 11/3/1
f 22/1/1 13/1/1 12/1/1
f 23/6/1 14/6/1 13/6/1
f 23/1/1 13/1/1 22/1/1
f 24/4/1 15/4/1 14/4/1
f 24/6/1 14/6/1 23/6/1
f 25/6/1 16/6/1 15/6/1
f 25/4/1 15/4/1 24/4/1
f 27/6/1 18/6/1 7/6/1
f 28/4/1 19/4/1 18/4/1
f 28/6/1 18/6/1 27/6/1
f 29/6/1 8/6/1 19/6/1
f 29/4/1 19/4/1 28/4/1
f 30/6/1 8/6/1 29/6/1
f 31/6/1 20/6/1 9/6/1
f 32/4/1 21/4/1 20/4/1
f 32/6/1 20/6/1 31/6/1
f 33/6/1 10/6/1 21/6/1
f 33/4/1 21/4/1 32/4/1
f 34/3/1 22/3/1 11/3/1
f 35/3/1 22/3/1 34/3/1
f 36/6/1 24/6/1 23/6/1
f 36/6/1 25/6/1 24/6/1
f 37/1/1 17/1/1 16/1/1
f 37/6/1 25/6/1 36/6/1
f 37/6/1 16/6/1 25/6/1
f 38/6/1 28/6/1 27/6/1
f 38/3/1 27/3/1 26/3/1
f 38/6/1 30/6/1 29/6/1
f 38/6/1 29/6/1 28/6/1
f 39/3/1 31/3/1 30/3/1
f 39/6/1 30/6/1 38/6/1
f 40/6/1 32/6/1 31/6/1
f 40/3/1 31/3/1 39/3/1
f 40/6/1 33/6/1 32/6/1
f 41/6/1 10/6/1 33/6/1
f 41/6/1 33/6/1 40/6/1
f 42/1/1 35/1/1 34/1/1
f 43/1/1 35/1/1 42/1/1
f 44/1/1 37/1/1 36/1/1
f 45/1/1 37/1/1 44/1/1
f 46/6/1 43/6/1 42/6/1
f 46/6/1 44/6/1 43/6/1
f 46/6/1 45/6/1 44/6/1
f 47/1/1 37/1/1 45/1/1
f 47/6/1 45/6/1 46/6/1
f 48/1/1 47/1/1 46/1/1
f 49/1/1 17/1/1 37/1/1
f 49/1/1 47/1/1 48/1/1
f 49/1/1 37/1/1 47/1/1
f 50/3/1 39/3/1 38/3/1
f 50/3/1 38/3/1 26/3/1
f 50/3/1 40/3/1 39/3/1
f 50/3/1 41/3/1 40/3/1
f 51/3/1 41/3/1 50/3/1
f 56/3/1 53/3/1 52/3/1
f 57/3/1 53/3/1 56/3/1
f 58/3/1 55/3/1 54/3/1
f 59/3/1 55/3/1 58/3/1
f 62/3/1 61/3/1 60/3/1
f 63/3/1 61/3/1 62/3/1
f 66/5/1 65/5/1 64/5/1
f 67/5/1 65/5/1 66/5/1
f 68/5/1 65/5/1 67/5/1
f 69/5/1 65/5/1 68/5/1
f 76/6/1 71/6/1 70/6/1
f 77/6/1 71/6/1 76/6/1
f 78/6/1 73/6/1 72/6/1
f 79/6/1 73/6/1 78/6/1
f 80/6/1 75/6/1 74/6/1
f 81/6/1 75/6/1 80/6/1
f 82/6/1 75/6/1 81/6/1
f 83/6/1 75/6/1 82/6/1
f 84/6/2 85/6/2 90/6/2
f 90/6/2 85/6/2 91/6/2
f 86/6/2 87/6/2 92/6/2
f 92/6/2 87/6/2 93/6/2
f 88/6/2 89/6/2 94/6/2
f 94/6/2 89/6/2 95/6/2
f 95/6/2 89/6/2 96/6/2
f 96/6/2 89/6/2 97/6/2
f 98/5/2 99/5/2 100/5/2
f 100/5/2 99/5/2 101/5/2
f 101/5/2 99/5/2 102/5/2
f 102/5/2 99/5/2 103/5/2
f 104/3/2 105/3/2 106/3/2
f 106/3/2 105/3/2 107/3/2
f 108/3/2 109/3/2 112/3/2
f 112/3/2 109/3/2 113/3/2
f 110/3/2 111/3/2 114/3/2
f 114/3/2 111/3/2 115/3/2
f 116/6/2 117/6/2 124/6/2
f 124/6/2 117/6/2 125/6/2
f 125/6/2 117/6/2 126/6/2
f 126/6/2 117/6/2 127/6/2
f 118/6/2 119/6/2 129/6/2
f 129/6/2 119/6/2 130/6/2
f 120/6/2 121/6/2 131/6/2
f 131/6/2 121/6/2 132/6/2
f 122/3/2 123/3/2 133/3/2
f 123/1/2 124/1/2 133/1/2
f 124/6/2 125/6/2 134/6/2
f 133/1/2 124/1/2 134/1/2
f 125/4/2 126/4/2 135/4/2
f 134/6/2 125/6/2 135/6/2
f 126/6/2 127/6/2 136/6/2
f 135/4/2 126/4/2 136/4/2
f 118/6/2 129/6/2 138/6/2
f 129/4/2 130/4/2 139/4/2
f 138/6/2 129/6/2 139/6/2
f 130/6/2 119/6/2 140/6/2
f 139/4/2 130/4/2 140/4/2
f 140/6/2 119/6/2 141/6/2
f 120/6/2 131/6/2 142/6/2
f 131/4/2 132/4/2 143/4/2
f 142/6/2 131/6/2 143/6/2
f 132/6/2 121/6/2 144/6/2
f 143/4/2 132/4/2 144/4/2
f 122/3/2 133/3/2 145/3/2
f 145/3/2 133/3/2 146/3/2
f 134/6/2 135/6/2 147/6/2
f 135/6/2 136/6/2 147/6/2
f 127/1/2 128/1/2 148/1/2
f 147/6/2 136/6/2 148/6/2
f 136/6/2 127/6/2 148/6/2
f 138/6/2 139/6/2 149/6/2
f 137/3/2 138/3/2 149/3/2
f 140/6/2 141/6/2 149/6/2
f 139/6/2 140/6/2 149/6/2
f 141/3/2 142/3/2 150/3/2
f 149/6/2 141/6/2 150/6/2
f 142/6/2 143/6/2 151/6/2
f 150/3/2 142/3/2 151/3/2
f 143/6/2 144/6/2 151/6/2
f 144/6/2 121/6/2 152/6/2
f 151/6/2 144/6/2 152/6/2
f 145/1/2 146/1/2 153/1/2
f 153/1/2 146/1/2 154/1/2
f 147/1/2 148/1/2 155/1/2
f 155/1/2 148/1/2 156/1/2
f 153/6/2 154/6/2 157/6/2
f 154/6/2 155/6/2 157/6/2
f 155/6/2 156/6/2 157/6/2
f 156/1/2 148/1/2 158/1/2
f 157/6/2 156/6/2 158/6/2
f 157/1/2 158/1/2 159/1/2
f 148/1/2 128/1/2 160/1/2
f 159/1/2 158/1/2 160/1/2
f 158/1/2 148/1/2 160/1/2
f 149/3/2 150/3/2 161/3/2
f 137/3/2 149/3/2 161/3/2
f 150/3/2 151/3/2 161/3/2
f 151/3/2 152/3/2 161/3/2
f 161/3/2 152/3/2 162/3/2
f 163/1/2 164/1/2 165/1/2
f 165/1/2 164/1/2 166/1/2
f 172/3/3 168/3/3 167/3/3
f 173/1/3 169/1/3 168/1/3
f 173/3/3 168/3/3 172/3/3
f 174/1/3 173/1/3 172/1/3
f 175/1/3 169/1/3 173/1/3
f 175/1/3 173/1/3 174/1/3
f 176/3/3 175/3/3 174/3/3
f 177/1/3 169/1/3 175/1/3
f 177/3/3 175/3/3 176/3/3
f 178/6/3 170/6/3 169/6/3
f 178/1/3 169/1/3 177/1/3
f 179/1/3 171/1/3 170/1/3
f 179/6/3 170/6/3 178/6/3
f 180/1/3 171/1/3 179/1/3
f 183/1/3 182/1/3 181/1/3
f 184/1/3 182/1/3 183/1/3
f 185/1/3 182/1/3 184/1/3
f 189/1/3 187/1/3 186/1/3
f 189/1/3 188/1/3 187/1/3
f 190/1/3 188/1/3 189/1/3
f 193/6/3 192/6/3 191/6/3
f 194/6/3 192/6/3 193/6/3
f 197/6/3 196/6/3 195/6/3
f 198/6/3 196/6/3 197/6/3
f 201/5/3 200/5/3 199/5/3
f 202/5/3 200/5/3 201/5/3
f 205/5/3 204/5/3 203/5/3
f 206/5/3 204/5/3 205/5/3
f 210/3/3 208/3/3 207/3/3
f 211/3/3 208/3/3 210/3/3
f 211/3/3 210/3/3 209/3/3
f 212/3/3 208/3/3 211/3/3
f 213/3/3 211/3/3 209/3/3
f 214/3/3 208/3/3 212/3/3
f 215/3/3 213/3/3 209/3/3
f 215/3/3 214/3/3 213/3/3
f 216/3/3 214/3/3 215/3/3
f 217/3/3 214/3/3 216/3/3
f 218/3/3 208/3/3 214/3/3
f 218/3/3 214/3/3 217/3/3
f 221/6/3 220/6/3 219/6/3
f 222/6/3 220/6/3 221/6/3
f 223/6/3 220/6/3 222/6/3
f 227/6/3 225/6/3 224/6/3
f 227/6/3 226/6/3 225/6/3
f 228/6/3 226/6/3 227/6/3
f 231/6/3 230/6/3 229/6/3
f 232/6/3 230/6/3 231/6/3
f 233/6/3 230/6/3 232/6/3
f 237/6/3 235/6/3 234/6/3
f 237/6/3 236/6/3 235/6/3
f 238/6/3 236/6/3 237/6/3
f 239/1/4 240/1/4 241/1/4
f 241/1/4 240/1/4 242/1/4
f 242/1/4 240/1/4 243/1/4
f 244/1/4 245/1/4 247/1/4
f 245/1/4 246/1/4 247/1/4
f 247/1/4 246/1/4 248/1/4
f 249/6/4 250/6/4 251/6/4
f 251/6/4 250/6/4 252/6/4
f 253/6/4 254/6/4 255/6/4
f 255/6/4 254/6/4 256/6/4
f 257/1/4 258/1/4 259/1/4
f 259/1/4 258/1/4 260/1/4
f 259/2/4 260/2/4 261/2/4
f 260/1/4 258/1/4 262/1/4
f 261/2/4 260/2/4 262/2/4
f 262/1/4 258/1/4 263/1/4
f 263/1/4 258/1/4 264/1/4
f 263/2/4 264/2/4 266/2/4
f 264/5/4 265/5/4 267/5/4
f 266/2/4 264/2/4 267/2/4
f 267/5/4 265/5/4 268/5/4
f 259/2/4 261/2/4 269/2/4
f 266/1/4 267/1/4 270/1/4
f 257/1/4 259/1/4 271/1/4
f 269/2/4 270/2/4 271/2/4
f 259/2/4 269/2/4 271/2/4
f 270/1/4 267/1/4 272/1/4
f 271/2/4 270/2/4 272/2/4
f 257/1/4 271/1/4 273/1/4
f 271/1/4 272/1/4 273/1/4
f 272/1/4 267/1/4 274/1/4
f 273/1/4 272/1/4 274/1/4
f 275/6/4 276/6/4 277/6/4
f 277/6/4 276/6/4 278/6/4
f 278/6/4 276/6/4 279/6/4
f 280/6/4 281/6/4 283/6/4
f 281/6/4 282/6/4 283/6/4
f 283/6/4 282/6/4 284/6/4
f 285/3/4 286/3/4 287/3/4
f 287/3/4 286/3/4 288/3/4
f 289/6/4 290/6/4 292/6/4
f 292/6/4 290/6/4 293/6/4
f 290/3/4 291/3/4 294/3/4
f 293/6/4 290/6/4 294/6/4
f 293/3/4 294/3/4 296/3/4
f 294/3/4 291/3/4 297/3/4
f 296/3/4 294/3/4 297/3/4
f 295/6/4 296/6/4 298/6/4
f 296/6/4 297/6/4 298/6/4
f 297/3/4 291/3/4 299/3/4
f 298/6/4 297/6/4 299/6/4
f 299/3/4 291/3/4 300/3/4
f 305/6/5 302/6/5 301/6/5
f 306/6/5 302/6/5 305/6/5
f 307/6/5 304/6/5 303/6/5
f 308/6/5 304/6/5 307/6/5
f 313/6/5 310/6/5 309/6/5
f 314/6/5 310/6/5 313/6/5
f 315/6/5 312/6/5 311/6/5
f 316/6/5 312/6/5 315/6/5
f 321/6/5 318/6/5 317/6/5
f 322/6/5 318/6/5 321/6/5
f 323/6/5 320/6/5 319/6/5
f 324/6/5 320/6/5 323/6/5
f 329/3/5 326/3/5 325/3/5
f 330/1/5 327/1/5 326/1/5
f 330/3/5 326/3/5 329/3/5
f 331/3/5 328/3/5 327/3/5
f 331/1/5 327/1/5 330/1/5
f 332/3/5 328/3/5 331/3/5
f 333/1/5 330/1/5 329/1/5
f 333/1/5 331/1/5 330/1/5
f 333/1/5 332/1/5 331/1/5
f 334/1/5 332/1/5 333/1/5
f 335/1/5 332/1/5 334/1/5
f 336/1/5 332/1/5 335/1/5
f 338/1/5 335/1/5 334/1/5
f 339/1/5 335/1/5 338/1/5
f 341/1/5 338/1/5 337/1/5
f 341/1/5 340/1/5 339/1/5
f 341/1/5 339/1/5 338/1/5
f 342/1/5 340/1/5 341/1/5
f 345/3/5 344/3/5 343/3/5
f 346/3/5 344/3/5 345/3/5
f 347/3/5 346/3/5 345/3/5
f 348/3/5 346/3/5 347/3/5
f 349/3/5 348/3/5 347/3/5
f 350/3/5 348/3/5 349/3/5
f 351/3/5 350/3/5 349/3/5
f 352/3/5 350/3/5 351/3/5
f 357/1/5 354/1/5 353/1/5
f 358/1/5 354/1/5 357/1/5
f 359/1/5 356/1/5 355/1/5
f 360/1/5 356/1/5 359/1/5
f 365/3/5 362/3/5 361/3/5
f 366/3/5 362/3/5 365/3/5
f 367/3/5 364/3/5 363/3/5
f 368/3/5 364/3/5 367/3/5
f 373/3/5 370/3/5 369/3/5
f 374/3/5 370/3/5 373/3/5
f 375/3/5 372/3/5 371/3/5
f 376/3/5 372/3/5 375/3/5
f 379/3/5 378/3/5 377/3/5
f 380/3/5 378/3/5 379/3/5
f 383/3/5 382/3/5 381/3/5
f 384/3/5 382/3/5 383/3/5
f 385/1/6 386/1/6 389/1/6
f 389/1/6 386/1/6 390/1/6
f 387/1/6 388/1/6 391/1/6
f 391/1/6 388/1/6 392/1/6
f 393/3/6 394/3/6 397/3/6
f 395/3/6 396/3/6 397/3/6
f 394/3/6 395/3/6 397/3/6
f 397/3/6 396/3/6 398/3/6
f 399/1/6 400/1/6 401/1/6
f 401/1/6 400/1/6 402/1/6
f 399/1/6 401/1/6 403/1/6
f 403/1/6 401/1/6 404/1/6
f 402/1/6 400/1/6 405/1/6
f 405/1/6 400/1/6 406/1/6
f 407/5/6 408/5/6 409/5/6
f 409/5/6 408/5/6 410/5/6
f 411/5/6 412/5/6 413/5/6
f 413/5/6 412/5/6 414/5/6
f 415/3/6 416/3/6 417/3/6
f 417/3/6 416/3/6 418/3/6
