# MagicaVoxel @ Ephtracy

# group
o 

# material
mtllib lilypad.mtl
usemtl palette

# normals
vn -1 0 0
vn 1 0 0
vn 0 0 1
vn 0 0 -1
vn 0 -1 0
vn 0 1 0

# texcoords
vt 0.0488281 0.5
vt 0.744141 0.5
vt 0.748047 0.5
vt 0.763672 0.5

# verts
v 0 3.5 0
v 0 3.5 -3.6
v 0 3.9 -0.5
v 0 3.9 -1
v 0 3.9 -1.4
v 0 3.9 -1.8
v 0 3.9 -2.2
v 0 3.9 -2.6
v 0 3.9 -3.1
v 0 3.9 -3.6
v 0 4.3 0
v 0 4.3 -0.5
v 0 4.3 -1
v 0 4.3 -1.4
v 0 4.3 -1.8
v 0 4.3 -2.2
v 0 4.3 -2.6
v 0 4.3 -3.1
v 0 4.3 -3.6
v 0.7 3.5 -3.6
v 0.7 3.5 -3.9
v 0.7 3.5 -4
v 0.7 3.9 -3.9
v 0.7 3.9 -4
v 0.7 4.2 -3.6
v 0.7 4.2 -4
v 0.7 4.3 -3.6
v 0.7 4.3 -4
v 1.7 2.6 -0.2
v 1.7 2.6 -0.7
v 1.7 3.5 0
v 1.7 3.5 -0.2
v 1.7 3.5 -0.5
v 1.7 3.5 -0.7
v 1.7 3.9 0
v 1.7 3.9 -0.5
v 2.3 3.7 -1.2
v 2.3 3.7 -1.8
v 2.3 3.9 -1
v 2.3 3.9 -1.2
v 2.3 4.1 -0.5
v 2.3 4.1 -1
v 2.3 4.2 -0.5
v 2.3 4.2 -1
v 2.3 4.2 -1.4
v 2.3 4.2 -1.8
v 2.3 4.3 -0.5
v 2.3 4.3 -1
v 2.3 4.3 -1.4
v 2.3 4.3 -1.8
v 2.9 3.5 0
v 2.9 3.5 -0.5
v 2.9 4.2 -0.5
v 2.9 4.3 0
v 2.9 4.3 -0.5
v 1.1 3.5 0
v 1.1 3.5 -0.5
v 1.1 4.2 0
v 1.1 4.2 -0.5
v 1.1 4.3 0
v 1.1 4.3 -0.5
v 1.7 3.7 -1.2
v 1.7 3.7 -1.8
v 1.7 3.9 -1
v 1.7 3.9 -1.2
v 1.7 4.1 -0.5
v 1.7 4.1 -1
v 1.7 4.2 -1
v 1.7 4.2 -1.4
v 1.7 4.2 -1.8
v 1.7 4.3 -0.5
v 1.7 4.3 -1
v 1.7 4.3 -1.4
v 1.7 4.3 -1.8
v 2.3 2.6 -0.2
v 2.3 2.6 -0.7
v 2.3 3.5 0
v 2.3 3.5 -0.2
v 2.3 3.5 -0.5
v 2.3 3.5 -0.7
v 2.3 3.9 0
v 2.3 3.9 -0.5
v 3.3 3.5 -3.6
v 3.3 3.5 -4
v 3.3 3.9 -3.9
v 3.3 3.9 -4
v 3.3 4.2 -3.6
v 3.3 4.2 -3.9
v 3.3 4.2 -4
v 3.3 4.3 -3.6
v 3.3 4.3 -4
v 4 3.5 0
v 4 3.5 -0.5
v 4 3.5 -1
v 4 3.5 -1.4
v 4 3.5 -1.8
v 4 3.5 -2.2
v 4 3.5 -2.6
v 4 3.5 -3.1
v 4 3.5 -3.6
v 4 3.9 0
v 4 3.9 -0.5
v 4 3.9 -1
v 4 3.9 -1.4
v 4 3.9 -1.8
v 4 3.9 -2.2
v 4 3.9 -2.6
v 4 3.9 -3.1
v 4 4.2 0
v 4 4.2 -0.5
v 4 4.2 -1
v 4 4.2 -1.4
v 4 4.2 -1.8
v 4 4.2 -2.2
v 4 4.2 -2.6
v 4 4.2 -3.1
v 4 4.3 0
v 4 4.3 -0.5
v 4 4.3 -1
v 4 4.3 -1.4
v 4 4.3 -1.8
v 4 4.3 -2.2
v 4 4.3 -2.6
v 4 4.3 -3.1
v 4 4.3 -3.6
v 0 3.5 0
v 0 4.3 0
v 0.1 3.5 0
v 0.1 4.2 0
v 1.1 3.5 0
v 1.1 4.2 0
v 1.1 4.3 0
v 1.7 3.5 0
v 1.7 3.9 0
v 2.3 3.5 0
v 2.3 3.9 0
v 2.9 3.5 0
v 2.9 4.3 0
v 3.9 3.9 0
v 3.9 4.2 0
v 4 3.5 0
v 4 3.9 0
v 4 4.2 0
v 4 4.3 0
v 1.7 2.6 -0.2
v 1.7 3.5 -0.2
v 2.3 2.6 -0.2
v 2.3 3.5 -0.2
v 1.1 3.5 -0.5
v 1.1 4.2 -0.5
v 1.1 4.3 -0.5
v 1.7 3.5 -0.5
v 1.7 3.9 -0.5
v 1.7 4.1 -0.5
v 1.7 4.3 -0.5
v 2.3 3.5 -0.5
v 2.3 3.9 -0.5
v 2.3 4.1 -0.5
v 2.3 4.2 -0.5
v 2.3 4.3 -0.5
v 2.9 3.5 -0.5
v 2.9 4.2 -0.5
v 2.9 4.3 -0.5
v 1.7 3.7 -1.8
v 1.7 4.2 -1.8
v 1.7 4.3 -1.8
v 2 4.2 -1.8
v 2 4.3 -1.8
v 2.3 3.7 -1.8
v 2.3 4.2 -1.8
v 2.3 4.3 -1.8
v 1.7 2.6 -0.7
v 1.7 3.5 -0.7
v 2.3 2.6 -0.7
v 2.3 3.5 -0.7
v 1.7 3.9 -1
v 1.7 4.1 -1
v 2.3 3.9 -1
v 2.3 4.1 -1
v 1.7 3.7 -1.2
v 1.7 3.9 -1.2
v 2.3 3.7 -1.2
v 2.3 3.9 -1.2
v 0 3.5 -3.6
v 0 3.9 -3.6
v 0 4.3 -3.6
v 0.1 3.5 -3.6
v 0.1 3.9 -3.6
v 0.7 3.5 -3.6
v 0.7 4.2 -3.6
v 0.7 4.3 -3.6
v 3.3 3.5 -3.6
v 3.3 4.2 -3.6
v 3.3 4.3 -3.6
v 3.9 3.5 -3.6
v 3.9 4.2 -3.6
v 4 3.5 -3.6
v 4 4.3 -3.6
v 0.7 3.5 -4
v 0.7 3.9 -4
v 0.7 4.2 -4
v 0.7 4.3 -4
v 2 3.5 -4
v 2 3.9 -4
v 2 4.2 -4
v 2 4.3 -4
v 3.3 3.5 -4
v 3.3 3.9 -4
v 3.3 4.2 -4
v 3.3 4.3 -4
v 1.7 2.6 -0.2
v 2.3 2.6 -0.2
v 1.7 2.6 -0.7
v 2.3 2.6 -0.7
v 0 3.5 0
v 0.1 3.5 0
v 1.1 3.5 0
v 1.7 3.5 0
v 2.3 3.5 0
v 2.9 3.5 0
v 4 3.5 0
v 1.7 3.5 -0.2
v 2.3 3.5 -0.2
v 1.1 3.5 -0.5
v 1.7 3.5 -0.5
v 2.3 3.5 -0.5
v 2.9 3.5 -0.5
v 3.9 3.5 -0.5
v 4 3.5 -0.5
v 1.7 3.5 -0.7
v 2.3 3.5 -0.7
v 3.9 3.5 -1
v 4 3.5 -1
v 3.9 3.5 -1.4
v 4 3.5 -1.4
v 1.7 3.5 -1.8
v 2.3 3.5 -1.8
v 3.9 3.5 -1.8
v 4 3.5 -1.8
v 3.9 3.5 -2.2
v 4 3.5 -2.2
v 3.9 3.5 -2.6
v 4 3.5 -2.6
v 3.9 3.5 -3.1
v 4 3.5 -3.1
v 0 3.5 -3.6
v 0.1 3.5 -3.6
v 0.7 3.5 -3.6
v 3.3 3.5 -3.6
v 3.9 3.5 -3.6
v 4 3.5 -3.6
v 0.7 3.5 -3.9
v 2 3.5 -3.9
v 0.7 3.5 -4
v 2 3.5 -4
v 3.3 3.5 -4
v 1.7 3.7 -1.2
v 2.3 3.7 -1.2
v 1.7 3.7 -1.8
v 2.3 3.7 -1.8
v 1.7 3.9 0
v 2.3 3.9 0
v 1.7 3.9 -0.5
v 2.3 3.9 -0.5
v 1.7 3.9 -1
v 2.3 3.9 -1
v 1.7 3.9 -1.2
v 2.3 3.9 -1.2
v 1.7 4.1 -0.5
v 2.3 4.1 -0.5
v 1.7 4.1 -1
v 2.3 4.1 -1
v 0 4.3 0
v 1.1 4.3 0
v 2.9 4.3 0
v 4 4.3 0
v 0 4.3 -0.5
v 1.1 4.3 -0.5
v 1.7 4.3 -0.5
v 2.3 4.3 -0.5
v 2.9 4.3 -0.5
v 4 4.3 -0.5
v 0 4.3 -1
v 1.7 4.3 -1
v 2.3 4.3 -1
v 4 4.3 -1
v 0 4.3 -1.4
v 1.7 4.3 -1.4
v 2.3 4.3 -1.4
v 4 4.3 -1.4
v 0 4.3 -1.8
v 1.7 4.3 -1.8
v 2 4.3 -1.8
v 2.3 4.3 -1.8
v 4 4.3 -1.8
v 2.3 4.3 -2
v 3.1 4.3 -2
v 0 4.3 -2.2
v 2 4.3 -2.2
v 2.3 4.3 -2.2
v 3.1 4.3 -2.2
v 4 4.3 -2.2
v 0 4.3 -2.6
v 2 4.3 -2.6
v 2.3 4.3 -2.6
v 3.1 4.3 -2.6
v 4 4.3 -2.6
v 2.3 4.3 -2.8
v 3.1 4.3 -2.8
v 0 4.3 -3.1
v 2 4.3 -3.1
v 4 4.3 -3.1
v 0 4.3 -3.6
v 0.7 4.3 -3.6
v 2 4.3 -3.6
v 3.3 4.3 -3.6
v 4 4.3 -3.6
v 0.7 4.3 -4
v 2 4.3 -4
v 3.3 4.3 -4

# faces
f 3/2/1 2/2/1 1/2/1
f 4/2/1 2/2/1 3/2/1
f 5/2/1 2/2/1 4/2/1
f 6/2/1 2/2/1 5/2/1
f 7/2/1 2/2/1 6/2/1
f 8/2/1 2/2/1 7/2/1
f 9/2/1 2/2/1 8/2/1
f 10/2/1 2/2/1 9/2/1
f 11/2/1 3/2/1 1/2/1
f 12/3/1 4/3/1 3/3/1
f 12/2/1 3/2/1 11/2/1
f 13/2/1 5/2/1 4/2/1
f 13/3/1 4/3/1 12/3/1
f 14/3/1 6/3/1 5/3/1
f 14/2/1 5/2/1 13/2/1
f 15/2/1 7/2/1 6/2/1
f 15/3/1 6/3/1 14/3/1
f 16/3/1 8/3/1 7/3/1
f 16/2/1 7/2/1 15/2/1
f 17/2/1 9/2/1 8/2/1
f 17/3/1 8/3/1 16/3/1
f 18/3/1 10/3/1 9/3/1
f 18/2/1 9/2/1 17/2/1
f 19/3/1 10/3/1 18/3/1
f 23/3/1 21/3/1 20/3/1
f 23/2/1 22/2/1 21/2/1
f 24/2/1 22/2/1 23/2/1
f 25/3/1 23/3/1 20/3/1
f 25/3/1 24/3/1 23/3/1
f 26/3/1 24/3/1 25/3/1
f 27/2/1 26/2/1 25/2/1
f 28/2/1 26/2/1 27/2/1
f 32/4/1 30/4/1 29/4/1
f 33/4/1 30/4/1 32/4/1
f 34/4/1 30/4/1 33/4/1
f 35/4/1 32/4/1 31/4/1
f 35/4/1 33/4/1 32/4/1
f 36/4/1 33/4/1 35/4/1
f 40/3/1 38/3/1 37/3/1
f 42/3/1 40/3/1 39/3/1
f 43/3/1 42/3/1 41/3/1
f 44/3/1 40/3/1 42/3/1
f 44/3/1 42/3/1 43/3/1
f 45/3/1 38/3/1 40/3/1
f 45/3/1 40/3/1 44/3/1
f 46/3/1 38/3/1 45/3/1
f 47/2/1 44/2/1 43/2/1
f 48/3/1 45/3/1 44/3/1
f 48/2/1 44/2/1 47/2/1
f 49/2/1 46/2/1 45/2/1
f 49/3/1 45/3/1 48/3/1
f 50/2/1 46/2/1 49/2/1
f 53/3/1 52/3/1 51/3/1
f 54/3/1 53/3/1 51/3/1
f 55/3/1 53/3/1 54/3/1
f 56/3/2 57/3/2 58/3/2
f 58/3/2 57/3/2 59/3/2
f 58/2/2 59/2/2 60/2/2
f 60/2/2 59/2/2 61/2/2
f 62/3/2 63/3/2 65/3/2
f 64/3/2 65/3/2 67/3/2
f 67/3/2 65/3/2 68/3/2
f 66/3/2 67/3/2 68/3/2
f 65/3/2 63/3/2 69/3/2
f 68/3/2 65/3/2 69/3/2
f 69/3/2 63/3/2 70/3/2
f 66/3/2 68/3/2 71/3/2
f 68/2/2 69/2/2 72/2/2
f 71/3/2 68/3/2 72/3/2
f 69/3/2 70/3/2 73/3/2
f 72/2/2 69/2/2 73/2/2
f 73/3/2 70/3/2 74/3/2
f 75/4/2 76/4/2 78/4/2
f 78/4/2 76/4/2 79/4/2
f 79/4/2 76/4/2 80/4/2
f 77/4/2 78/4/2 81/4/2
f 78/4/2 79/4/2 81/4/2
f 81/4/2 79/4/2 82/4/2
f 83/3/2 84/3/2 85/3/2
f 85/3/2 84/3/2 86/3/2
f 83/3/2 85/3/2 87/3/2
f 85/2/2 86/2/2 88/2/2
f 87/3/2 85/3/2 88/3/2
f 88/2/2 86/2/2 89/2/2
f 87/3/2 88/3/2 90/3/2
f 88/3/2 89/3/2 90/3/2
f 90/3/2 89/3/2 91/3/2
f 92/3/2 93/3/2 101/3/2
f 93/2/2 94/2/2 102/2/2
f 101/3/2 93/3/2 102/3/2
f 94/3/2 95/3/2 103/3/2
f 102/2/2 94/2/2 103/2/2
f 95/2/2 96/2/2 104/2/2
f 103/3/2 95/3/2 104/3/2
f 96/3/2 97/3/2 105/3/2
f 104/2/2 96/2/2 105/2/2
f 97/2/2 98/2/2 106/2/2
f 105/3/2 97/3/2 106/3/2
f 98/3/2 99/3/2 107/3/2
f 106/2/2 98/2/2 107/2/2
f 99/2/2 100/2/2 108/2/2
f 107/3/2 99/3/2 108/3/2
f 106/2/2 107/2/2 109/2/2
f 101/2/2 102/2/2 109/2/2
f 107/2/2 108/2/2 109/2/2
f 105/2/2 106/2/2 109/2/2
f 104/2/2 105/2/2 109/2/2
f 103/2/2 104/2/2 109/2/2
f 102/2/2 103/2/2 109/2/2
f 109/2/2 108/2/2 110/2/2
f 110/2/2 108/2/2 111/2/2
f 111/2/2 108/2/2 112/2/2
f 112/2/2 108/2/2 113/2/2
f 113/2/2 108/2/2 114/2/2
f 114/2/2 108/2/2 115/2/2
f 108/2/2 100/2/2 116/2/2
f 115/2/2 108/2/2 116/2/2
f 109/3/2 110/3/2 117/3/2
f 110/2/2 111/2/2 118/2/2
f 117/3/2 110/3/2 118/3/2
f 111/3/2 112/3/2 119/3/2
f 118/2/2 111/2/2 119/2/2
f 112/2/2 113/2/2 120/2/2
f 119/3/2 112/3/2 120/3/2
f 113/3/2 114/3/2 121/3/2
f 120/2/2 113/2/2 121/2/2
f 114/2/2 115/2/2 122/2/2
f 121/3/2 114/3/2 122/3/2
f 115/3/2 116/3/2 123/3/2
f 122/2/2 115/2/2 123/2/2
f 116/2/2 100/2/2 124/2/2
f 123/3/2 116/3/2 124/3/2
f 124/2/2 100/2/2 125/2/2
f 128/2/3 127/2/3 126/2/3
f 129/2/3 127/2/3 128/2/3
f 130/3/3 129/3/3 128/3/3
f 131/2/3 127/2/3 129/2/3
f 131/3/3 129/3/3 130/3/3
f 132/2/3 127/2/3 131/2/3
f 135/4/3 134/4/3 133/4/3
f 136/4/3 134/4/3 135/4/3
f 139/3/3 138/3/3 137/3/3
f 140/3/3 138/3/3 139/3/3
f 141/3/3 139/3/3 137/3/3
f 142/2/3 140/2/3 139/2/3
f 142/3/3 139/3/3 141/3/3
f 143/3/3 138/3/3 140/3/3
f 143/2/3 140/2/3 142/2/3
f 144/3/3 138/3/3 143/3/3
f 147/4/3 146/4/3 145/4/3
f 148/4/3 146/4/3 147/4/3
f 152/3/3 150/3/3 149/3/3
f 152/3/3 151/3/3 150/3/3
f 153/3/3 151/3/3 152/3/3
f 154/3/3 151/3/3 153/3/3
f 155/3/3 151/3/3 154/3/3
f 157/4/3 154/4/3 153/4/3
f 158/4/3 154/4/3 157/4/3
f 161/3/3 157/3/3 156/3/3
f 161/3/3 158/3/3 157/3/3
f 161/3/3 159/3/3 158/3/3
f 162/2/3 160/2/3 159/2/3
f 162/3/3 159/3/3 161/3/3
f 163/2/3 160/2/3 162/2/3
f 167/3/3 165/3/3 164/3/3
f 167/2/3 166/2/3 165/2/3
f 168/2/3 166/2/3 167/2/3
f 169/3/3 167/3/3 164/3/3
f 169/3/3 168/3/3 167/3/3
f 170/3/3 168/3/3 169/3/3
f 171/3/3 168/3/3 170/3/3
f 172/4/4 173/4/4 174/4/4
f 174/4/4 173/4/4 175/4/4
f 176/4/4 177/4/4 178/4/4
f 178/4/4 177/4/4 179/4/4
f 180/4/4 181/4/4 182/4/4
f 182/4/4 181/4/4 183/4/4
f 184/2/4 185/2/4 187/2/4
f 185/3/4 186/3/4 188/3/4
f 187/2/4 185/2/4 188/2/4
f 187/3/4 188/3/4 189/3/4
f 188/3/4 186/3/4 190/3/4
f 189/3/4 188/3/4 190/3/4
f 190/3/4 186/3/4 191/3/4
f 192/3/4 193/3/4 195/3/4
f 193/2/4 194/2/4 196/2/4
f 195/3/4 193/3/4 196/3/4
f 195/2/4 196/2/4 197/2/4
f 196/2/4 194/2/4 198/2/4
f 197/2/4 196/2/4 198/2/4
f 199/2/4 200/2/4 203/2/4
f 200/3/4 201/3/4 204/3/4
f 203/2/4 200/2/4 204/2/4
f 201/2/4 202/2/4 205/2/4
f 204/3/4 201/3/4 205/3/4
f 205/2/4 202/2/4 206/2/4
f 203/3/4 204/3/4 207/3/4
f 204/2/4 205/2/4 208/2/4
f 207/3/4 204/3/4 208/3/4
f 205/3/4 206/3/4 209/3/4
f 208/2/4 205/2/4 209/2/4
f 209/3/4 206/3/4 210/3/4
f 213/4/5 212/4/5 211/4/5
f 214/4/5 212/4/5 213/4/5
f 222/4/5 219/4/5 218/4/5
f 223/4/5 219/4/5 222/4/5
f 224/3/5 217/3/5 216/3/5
f 227/3/5 221/3/5 220/3/5
f 228/3/5 221/3/5 227/3/5
f 229/3/5 221/3/5 228/3/5
f 230/3/5 225/3/5 224/3/5
f 231/3/5 227/3/5 226/3/5
f 231/3/5 228/3/5 227/3/5
f 232/2/5 229/2/5 228/2/5
f 232/3/5 228/3/5 231/3/5
f 233/2/5 229/2/5 232/2/5
f 234/3/5 232/3/5 231/3/5
f 234/3/5 233/3/5 232/3/5
f 235/3/5 233/3/5 234/3/5
f 236/3/5 230/3/5 224/3/5
f 236/4/5 231/4/5 230/4/5
f 237/3/5 234/3/5 231/3/5
f 237/4/5 231/4/5 236/4/5
f 238/2/5 235/2/5 234/2/5
f 238/3/5 234/3/5 237/3/5
f 239/2/5 235/2/5 238/2/5
f 240/3/5 237/3/5 236/3/5
f 240/3/5 238/3/5 237/3/5
f 240/3/5 239/3/5 238/3/5
f 241/3/5 239/3/5 240/3/5
f 242/3/5 240/3/5 236/3/5
f 242/2/5 241/2/5 240/2/5
f 243/2/5 241/2/5 242/2/5
f 244/3/5 242/3/5 236/3/5
f 244/3/5 243/3/5 242/3/5
f 245/3/5 243/3/5 244/3/5
f 246/2/5 216/2/5 215/2/5
f 247/3/5 224/3/5 216/3/5
f 247/2/5 216/2/5 246/2/5
f 247/3/5 236/3/5 224/3/5
f 247/3/5 244/3/5 236/3/5
f 248/3/5 244/3/5 247/3/5
f 249/3/5 244/3/5 248/3/5
f 250/2/5 245/2/5 244/2/5
f 250/3/5 244/3/5 249/3/5
f 251/2/5 245/2/5 250/2/5
f 252/3/5 249/3/5 248/3/5
f 253/3/5 249/3/5 252/3/5
f 254/2/5 253/2/5 252/2/5
f 255/3/5 249/3/5 253/3/5
f 255/2/5 253/2/5 254/2/5
f 256/3/5 249/3/5 255/3/5
f 257/4/6 258/4/6 259/4/6
f 259/4/6 258/4/6 260/4/6
f 261/4/6 262/4/6 263/4/6
f 263/4/6 262/4/6 264/4/6
f 265/4/6 266/4/6 267/4/6
f 267/4/6 266/4/6 268/4/6
f 269/4/6 270/4/6 271/4/6
f 271/4/6 270/4/6 272/4/6
f 273/2/6 274/2/6 277/2/6
f 277/2/6 274/2/6 278/2/6
f 275/3/6 276/3/6 281/3/6
f 281/3/6 276/3/6 282/3/6
f 278/3/6 279/3/6 283/3/6
f 277/3/6 278/3/6 283/3/6
f 283/3/6 279/3/6 284/3/6
f 281/2/6 282/2/6 285/2/6
f 280/2/6 281/2/6 285/2/6
f 285/2/6 282/2/6 286/2/6
f 283/2/6 284/2/6 287/2/6
f 287/2/6 284/2/6 288/2/6
f 285/3/6 286/3/6 289/3/6
f 289/3/6 286/3/6 290/3/6
f 287/3/6 288/3/6 291/3/6
f 291/3/6 288/3/6 292/3/6
f 289/2/6 290/2/6 294/2/6
f 294/2/6 290/2/6 295/2/6
f 293/3/6 294/3/6 296/3/6
f 294/3/6 295/3/6 296/3/6
f 296/3/6 295/3/6 297/3/6
f 292/2/6 293/2/6 298/2/6
f 291/2/6 292/2/6 298/2/6
f 293/3/6 296/3/6 299/3/6
f 298/2/6 293/2/6 299/2/6
f 296/1/6 297/1/6 300/1/6
f 299/3/6 296/3/6 300/3/6
f 297/3/6 295/3/6 301/3/6
f 300/1/6 297/1/6 301/1/6
f 301/3/6 295/3/6 302/3/6
f 298/3/6 299/3/6 303/3/6
f 299/2/6 300/2/6 304/2/6
f 303/3/6 299/3/6 304/3/6
f 300/1/6 301/1/6 305/1/6
f 304/2/6 300/2/6 305/2/6
f 301/2/6 302/2/6 306/2/6
f 305/1/6 301/1/6 306/1/6
f 306/2/6 302/2/6 307/2/6
f 304/3/6 305/3/6 308/3/6
f 305/1/6 306/1/6 308/1/6
f 306/3/6 307/3/6 309/3/6
f 308/1/6 306/1/6 309/1/6
f 303/2/6 304/2/6 310/2/6
f 304/3/6 308/3/6 311/3/6
f 310/2/6 304/2/6 311/2/6
f 308/3/6 309/3/6 311/3/6
f 309/3/6 307/3/6 312/3/6
f 311/3/6 309/3/6 312/3/6
f 310/3/6 311/3/6 313/3/6
f 313/3/6 311/3/6 314/3/6
f 311/2/6 312/2/6 315/2/6
f 314/3/6 311/3/6 315/3/6
f 315/2/6 312/2/6 316/2/6
f 316/2/6 312/2/6 317/2/6
f 314/2/6 315/2/6 318/2/6
f 315/3/6 316/3/6 319/3/6
f 318/2/6 315/2/6 319/2/6
f 319/3/6 316/3/6 320/3/6
