# MagicaVoxel @ Ephtracy

# group
o 

# material
mtllib log_small.mtl
usemtl palette

# normals
vn -1 0 0
vn 1 0 0
vn 0 0 1
vn 0 0 -1
vn 0 -1 0
vn 0 1 0

# texcoords
vt 0.365234 0.5
vt 0.533203 0.5
vt 0.701172 0.5

# verts
v 0 2 0
v 0 2 -4
v 0 2.4 -0.4
v 0 2.4 -3.6
v 0 5.6 -0.4
v 0 5.6 -3.6
v 0 6 0
v 0 6 -4
v 8 2 0
v 8 2 -4
v 8 2.4 -0.4
v 8 2.4 -3.6
v 8 5.6 -0.4
v 8 5.6 -3.6
v 8 6 0
v 8 6 -4
v 0 2 0
v 0 6 0
v 0.9 2 0
v 0.9 5.6 0
v 0.9 6 0
v 1 3.2 0
v 1 4 0
v 1.4 2 0
v 1.4 3 0
v 2.6 3.2 0
v 2.6 4 0
v 2.8 5.6 0
v 2.8 6 0
v 4.1 4.6 0
v 4.1 5.3 0
v 4.3 2 0
v 4.3 3 0
v 5.2 5.6 0
v 5.2 6 0
v 5.3 4.6 0
v 5.3 5.3 0
v 5.4 3.2 0
v 5.4 4 0
v 7 3.2 0
v 7 4 0
v 7.1 2 0
v 7.1 5.6 0
v 7.1 6 0
v 8 2 0
v 8 6 0
v 0 2.4 -3.6
v 0 5.6 -3.6
v 0.9 2.4 -3.6
v 0.9 5.6 -3.6
v 7.1 2.4 -3.6
v 7.1 5.6 -3.6
v 8 2.4 -3.6
v 8 5.6 -3.6
v 0 2.4 -0.4
v 0 5.6 -0.4
v 0.9 2.4 -0.4
v 0.9 5.6 -0.4
v 2.8 5.6 -0.4
v 5.2 5.6 -0.4
v 7.1 2.4 -0.4
v 7.1 5.6 -0.4
v 8 2.4 -0.4
v 8 5.6 -0.4
v 0 2 -4
v 0 6 -4
v 0.9 2 -4
v 0.9 2.2 -4
v 0.9 3 -4
v 0.9 6 -4
v 1.2 4.3 -4
v 1.2 4.8 -4
v 2.9 4.3 -4
v 2.9 4.8 -4
v 4 4.8 -4
v 4 5.4 -4
v 4.1 2.2 -4
v 4.1 3 -4
v 4.3 2.9 -4
v 4.3 3.5 -4
v 5.1 4.3 -4
v 5.1 4.8 -4
v 5.6 4.9 -4
v 5.6 5.4 -4
v 6.6 2.9 -4
v 6.6 3.5 -4
v 6.8 4.3 -4
v 6.8 4.9 -4
v 7.1 2 -4
v 7.1 6 -4
v 8 2 -4
v 8 6 -4
v 0 2 0
v 0.9 2 0
v 1.4 2 0
v 4.3 2 0
v 7.1 2 0
v 8 2 0
v 1.4 2 -0.5
v 4.3 2 -0.5
v 4.1 2 -1.3
v 6.3 2 -1.3
v 1.2 2 -2.2
v 3.5 2 -2.2
v 4.1 2 -2.2
v 6.3 2 -2.2
v 1.2 2 -2.8
v 2.5 2 -2.8
v 3.5 2 -2.8
v 6.7 2 -2.8
v 2.5 2 -3.4
v 6.7 2 -3.4
v 0 2 -4
v 0.9 2 -4
v 7.1 2 -4
v 8 2 -4
v 0 5.6 -0.4
v 0.9 5.6 -0.4
v 2.8 5.6 -0.4
v 5.2 5.6 -0.4
v 7.1 5.6 -0.4
v 8 5.6 -0.4
v 0.9 5.6 -0.5
v 2.8 5.6 -0.5
v 5.2 5.6 -0.5
v 7.1 5.6 -0.5
v 0 5.6 -3.6
v 0.9 5.6 -3.6
v 7.1 5.6 -3.6
v 8 5.6 -3.6
v 0 2.4 -0.4
v 0.9 2.4 -0.4
v 7.1 2.4 -0.4
v 8 2.4 -0.4
v 0 2.4 -3.6
v 0.9 2.4 -3.6
v 7.1 2.4 -3.6
v 8 2.4 -3.6
v 0 6 0
v 0.9 6 0
v 2.8 6 0
v 5.2 6 0
v 7.1 6 0
v 8 6 0
v 0.9 6 -0.5
v 2.8 6 -0.5
v 4.4 6 -0.5
v 5.2 6 -0.5
v 6.6 6 -0.5
v 7.1 6 -0.5
v 4.4 6 -1.1
v 6.6 6 -1.1
v 1.7 6 -1.8
v 3.6 6 -1.8
v 4.9 6 -1.8
v 6.3 6 -1.8
v 1.7 6 -2.4
v 3.6 6 -2.4
v 4.9 6 -2.4
v 6.3 6 -2.4
v 0.9 6 -2.9
v 3.7 6 -2.9
v 5.8 6 -2.9
v 7.1 6 -2.9
v 0.9 6 -3.7
v 3.7 6 -3.7
v 5.8 6 -3.7
v 7.1 6 -3.7
v 0 6 -4
v 0.9 6 -4
v 7.1 6 -4
v 8 6 -4

# faces
f 3/1/1 2/1/1 1/1/1
f 4/1/1 2/1/1 3/1/1
f 5/1/1 3/1/1 1/1/1
f 6/1/1 2/1/1 4/1/1
f 7/1/1 5/1/1 1/1/1
f 7/1/1 6/1/1 5/1/1
f 8/1/1 2/1/1 6/1/1
f 8/1/1 6/1/1 7/1/1
f 9/1/2 10/1/2 11/1/2
f 11/1/2 10/1/2 12/1/2
f 9/1/2 11/1/2 13/1/2
f 12/1/2 10/1/2 14/1/2
f 9/1/2 13/1/2 15/1/2
f 13/1/2 14/1/2 15/1/2
f 14/1/2 10/1/2 16/1/2
f 15/1/2 14/1/2 16/1/2
f 19/1/3 18/1/3 17/1/3
f 20/1/3 18/1/3 19/1/3
f 21/1/3 18/1/3 20/1/3
f 22/2/3 20/2/3 19/2/3
f 23/2/3 20/2/3 22/2/3
f 24/2/3 22/2/3 19/2/3
f 25/2/3 22/2/3 24/2/3
f 26/3/3 23/3/3 22/3/3
f 26/2/3 22/2/3 25/2/3
f 27/2/3 20/2/3 23/2/3
f 27/3/3 23/3/3 26/3/3
f 28/3/3 21/3/3 20/3/3
f 28/2/3 20/2/3 27/2/3
f 28/2/3 27/2/3 26/2/3
f 29/3/3 21/3/3 28/3/3
f 30/2/3 28/2/3 26/2/3
f 30/2/3 29/2/3 28/2/3
f 31/2/3 29/2/3 30/2/3
f 32/3/3 25/3/3 24/3/3
f 33/2/3 26/2/3 25/2/3
f 33/3/3 25/3/3 32/3/3
f 33/2/3 30/2/3 26/2/3
f 34/2/3 29/2/3 31/2/3
f 35/2/3 29/2/3 34/2/3
f 36/2/3 30/2/3 33/2/3
f 36/3/3 31/3/3 30/3/3
f 36/2/3 33/2/3 32/2/3
f 37/2/3 34/2/3 31/2/3
f 37/3/3 31/3/3 36/3/3
f 38/2/3 36/2/3 32/2/3
f 38/2/3 37/2/3 36/2/3
f 39/2/3 37/2/3 38/2/3
f 40/2/3 38/2/3 32/2/3
f 40/3/3 39/3/3 38/3/3
f 41/2/3 37/2/3 39/2/3
f 41/3/3 39/3/3 40/3/3
f 42/2/3 40/2/3 32/2/3
f 42/2/3 41/2/3 40/2/3
f 43/3/3 35/3/3 34/3/3
f 43/2/3 41/2/3 42/2/3
f 43/2/3 34/2/3 37/2/3
f 43/2/3 37/2/3 41/2/3
f 44/3/3 35/3/3 43/3/3
f 45/1/3 43/1/3 42/1/3
f 45/1/3 44/1/3 43/1/3
f 46/1/3 44/1/3 45/1/3
f 49/1/3 48/1/3 47/1/3
f 50/1/3 48/1/3 49/1/3
f 51/2/3 50/2/3 49/2/3
f 52/2/3 50/2/3 51/2/3
f 53/1/3 52/1/3 51/1/3
f 54/1/3 52/1/3 53/1/3
f 55/1/4 56/1/4 57/1/4
f 57/1/4 56/1/4 58/1/4
f 57/2/4 58/2/4 59/2/4
f 57/2/4 59/2/4 60/2/4
f 57/2/4 60/2/4 61/2/4
f 61/2/4 60/2/4 62/2/4
f 61/1/4 62/1/4 63/1/4
f 63/1/4 62/1/4 64/1/4
f 65/1/4 66/1/4 67/1/4
f 67/1/4 66/1/4 68/1/4
f 68/1/4 66/1/4 69/1/4
f 69/1/4 66/1/4 70/1/4
f 69/2/4 70/2/4 71/2/4
f 71/2/4 70/2/4 72/2/4
f 69/2/4 71/2/4 73/2/4
f 71/3/4 72/3/4 73/3/4
f 72/2/4 70/2/4 74/2/4
f 73/3/4 72/3/4 74/3/4
f 73/2/4 74/2/4 75/2/4
f 74/2/4 70/2/4 75/2/4
f 75/2/4 70/2/4 76/2/4
f 67/2/4 68/2/4 77/2/4
f 68/3/4 69/3/4 77/3/4
f 69/2/4 73/2/4 78/2/4
f 77/3/4 69/3/4 78/3/4
f 73/2/4 75/2/4 78/2/4
f 77/2/4 78/2/4 79/2/4
f 78/2/4 75/2/4 80/2/4
f 79/2/4 78/2/4 80/2/4
f 80/2/4 75/2/4 81/2/4
f 75/3/4 76/3/4 82/3/4
f 81/2/4 75/2/4 82/2/4
f 81/3/4 82/3/4 83/3/4
f 82/3/4 76/3/4 83/3/4
f 76/2/4 70/2/4 84/2/4
f 83/3/4 76/3/4 84/3/4
f 77/2/4 79/2/4 85/2/4
f 79/3/4 80/3/4 85/3/4
f 80/2/4 81/2/4 86/2/4
f 85/3/4 80/3/4 86/3/4
f 81/3/4 83/3/4 87/3/4
f 86/2/4 81/2/4 87/2/4
f 85/2/4 86/2/4 87/2/4
f 83/2/4 84/2/4 88/2/4
f 87/3/4 83/3/4 88/3/4
f 85/2/4 87/2/4 89/2/4
f 77/2/4 85/2/4 89/2/4
f 87/2/4 88/2/4 89/2/4
f 67/2/4 77/2/4 89/2/4
f 88/2/4 84/2/4 90/2/4
f 89/2/4 88/2/4 90/2/4
f 84/2/4 70/2/4 90/2/4
f 89/1/4 90/1/4 91/1/4
f 91/1/4 90/1/4 92/1/4
f 99/2/5 95/2/5 94/2/5
f 99/3/5 96/3/5 95/3/5
f 100/2/5 97/2/5 96/2/5
f 100/3/5 96/3/5 99/3/5
f 101/2/5 100/2/5 99/2/5
f 102/2/5 97/2/5 100/2/5
f 102/2/5 100/2/5 101/2/5
f 103/2/5 99/2/5 94/2/5
f 103/2/5 101/2/5 99/2/5
f 104/2/5 101/2/5 103/2/5
f 105/3/5 102/3/5 101/3/5
f 105/2/5 101/2/5 104/2/5
f 106/2/5 97/2/5 102/2/5
f 106/3/5 102/3/5 105/3/5
f 107/3/5 104/3/5 103/3/5
f 107/2/5 103/2/5 94/2/5
f 108/3/5 104/3/5 107/3/5
f 109/2/5 105/2/5 104/2/5
f 109/3/5 104/3/5 108/3/5
f 109/2/5 106/2/5 105/2/5
f 110/2/5 97/2/5 106/2/5
f 110/2/5 106/2/5 109/2/5
f 111/2/5 108/2/5 107/2/5
f 111/3/5 109/3/5 108/3/5
f 111/3/5 110/3/5 109/3/5
f 112/2/5 97/2/5 110/2/5
f 112/3/5 110/3/5 111/3/5
f 113/1/5 94/1/5 93/1/5
f 114/2/5 111/2/5 107/2/5
f 114/1/5 94/1/5 113/1/5
f 114/2/5 107/2/5 94/2/5
f 114/2/5 112/2/5 111/2/5
f 115/2/5 97/2/5 112/2/5
f 115/2/5 112/2/5 114/2/5
f 115/1/5 98/1/5 97/1/5
f 116/1/5 98/1/5 115/1/5
f 123/1/5 118/1/5 117/1/5
f 123/3/5 119/3/5 118/3/5
f 124/2/5 120/2/5 119/2/5
f 124/3/5 119/3/5 123/3/5
f 125/3/5 121/3/5 120/3/5
f 125/2/5 120/2/5 124/2/5
f 126/1/5 122/1/5 121/1/5
f 126/3/5 121/3/5 125/3/5
f 127/1/5 123/1/5 117/1/5
f 128/2/5 125/2/5 124/2/5
f 128/1/5 123/1/5 127/1/5
f 128/2/5 124/2/5 123/2/5
f 128/2/5 126/2/5 125/2/5
f 129/1/5 122/1/5 126/1/5
f 129/2/5 126/2/5 128/2/5
f 130/1/5 122/1/5 129/1/5
f 131/1/6 132/1/6 135/1/6
f 132/2/6 133/2/6 136/2/6
f 135/1/6 132/1/6 136/1/6
f 133/1/6 134/1/6 137/1/6
f 136/2/6 133/2/6 137/2/6
f 137/1/6 134/1/6 138/1/6
f 139/1/6 140/1/6 145/1/6
f 140/3/6 141/3/6 145/3/6
f 141/2/6 142/2/6 146/2/6
f 145/3/6 141/3/6 146/3/6
f 146/2/6 142/2/6 147/2/6
f 142/3/6 143/3/6 148/3/6
f 147/2/6 142/2/6 148/2/6
f 148/3/6 143/3/6 149/3/6
f 143/1/6 144/1/6 150/1/6
f 149/3/6 143/3/6 150/3/6
f 148/3/6 149/3/6 151/3/6
f 146/2/6 147/2/6 151/2/6
f 145/2/6 146/2/6 151/2/6
f 147/3/6 148/3/6 151/3/6
f 149/2/6 150/2/6 152/2/6
f 151/3/6 149/3/6 152/3/6
f 145/2/6 151/2/6 153/2/6
f 151/2/6 152/2/6 153/2/6
f 153/2/6 152/2/6 154/2/6
f 154/2/6 152/2/6 155/2/6
f 155/2/6 152/2/6 156/2/6
f 145/2/6 153/2/6 157/2/6
f 153/3/6 154/3/6 157/3/6
f 154/2/6 155/2/6 158/2/6
f 157/3/6 154/3/6 158/3/6
f 155/3/6 156/3/6 159/3/6
f 158/2/6 155/2/6 159/2/6
f 156/2/6 152/2/6 160/2/6
f 159/3/6 156/3/6 160/3/6
f 139/1/6 145/1/6 161/1/6
f 158/2/6 159/2/6 161/2/6
f 159/2/6 160/2/6 161/2/6
f 145/2/6 157/2/6 161/2/6
f 157/2/6 158/2/6 161/2/6
f 161/2/6 160/2/6 162/2/6
f 162/2/6 160/2/6 163/2/6
f 150/1/6 144/1/6 164/1/6
f 163/2/6 160/2/6 164/2/6
f 152/2/6 150/2/6 164/2/6
f 160/2/6 152/2/6 164/2/6
f 161/3/6 162/3/6 165/3/6
f 139/1/6 161/1/6 165/1/6
f 162/2/6 163/2/6 166/2/6
f 165/3/6 162/3/6 166/3/6
f 163/3/6 164/3/6 167/3/6
f 166/2/6 163/2/6 167/2/6
f 164/1/6 144/1/6 168/1/6
f 167/3/6 164/3/6 168/3/6
f 139/1/6 165/1/6 169/1/6
f 166/2/6 167/2/6 170/2/6
f 169/1/6 165/1/6 170/1/6
f 165/2/6 166/2/6 170/2/6
f 167/2/6 168/2/6 170/2/6
f 168/1/6 144/1/6 171/1/6
f 170/2/6 168/2/6 171/2/6
f 171/1/6 144/1/6 172/1/6
