# MagicaVoxel @ Ephtracy

# group
o 

# material
mtllib road_line_top.mtl
usemtl palette

# normals
vn -1 0 0
vn 1 0 0
vn 0 0 1
vn 0 0 -1
vn 0 -1 0
vn 0 1 0

# texcoords
vt 0.966797 0.5
vt 0.990234 0.5

# verts
v 0 2 0
v 0 2 -0.1
v 0 2 -0.6
v 0 2 -1.5
v 0 2 -2.5
v 0 2 -3.5
v 0 2 -4.5
v 0 2 -5.5
v 0 2 -6.5
v 0 2 -7.5
v 0 2 -8.5
v 0 2 -9.4
v 0 2 -9.9
v 0 2 -10
v 0 2.1 0
v 0 2.1 -0.1
v 0 2.1 -0.6
v 0 2.1 -1.5
v 0 2.1 -2.5
v 0 2.1 -3.5
v 0 2.1 -4.5
v 0 2.1 -5.5
v 0 2.1 -6.5
v 0 2.1 -7.5
v 0 2.1 -8.5
v 0 2.1 -9.4
v 0 2.1 -9.9
v 0 2.1 -10
v 1 2 0
v 1 2 -10
v 1 2.1 0
v 1 2.1 -10
v 0 2 0
v 0 2.1 0
v 1 2 0
v 1 2.1 0
v 0 2 -10
v 0 2.1 -10
v 1 2 -10
v 1 2.1 -10
v 0 2 0
v 1 2 0
v 0 2 -0.1
v 0.1 2 -0.1
v 0 2 -0.6
v 0.1 2 -0.6
v 0 2 -1.5
v 0.1 2 -1.5
v 0 2 -2.5
v 0.1 2 -2.5
v 0 2 -3.5
v 0.1 2 -3.5
v 0 2 -4.5
v 0.1 2 -4.5
v 0 2 -5.5
v 0.1 2 -5.5
v 0 2 -6.5
v 0.1 2 -6.5
v 0 2 -7.5
v 0.1 2 -7.5
v 0 2 -8.5
v 0.1 2 -8.5
v 0 2 -9.4
v 0.1 2 -9.4
v 0 2 -9.9
v 0.1 2 -9.9
v 0 2 -10
v 1 2 -10
v 0 2.1 0
v 1 2.1 0
v 0 2.1 -0.1
v 0.1 2.1 -0.1
v 0 2.1 -0.6
v 0.1 2.1 -0.6
v 0 2.1 -1.5
v 0.1 2.1 -1.5
v 0 2.1 -2.5
v 0.1 2.1 -2.5
v 0 2.1 -3.5
v 0.1 2.1 -3.5
v 0 2.1 -4.5
v 0.1 2.1 -4.5
v 0 2.1 -5.5
v 0.1 2.1 -5.5
v 0 2.1 -6.5
v 0.1 2.1 -6.5
v 0 2.1 -7.5
v 0.1 2.1 -7.5
v 0 2.1 -8.5
v 0.1 2.1 -8.5
v 0 2.1 -9.4
v 0.1 2.1 -9.4
v 0 2.1 -9.9
v 0.1 2.1 -9.9
v 0 2.1 -10
v 1 2.1 -10

# faces
f 15/2/1 2/2/1 1/2/1
f 16/1/1 3/1/1 2/1/1
f 16/2/1 2/2/1 15/2/1
f 17/2/1 4/2/1 3/2/1
f 17/1/1 3/1/1 16/1/1
f 18/1/1 5/1/1 4/1/1
f 18/2/1 4/2/1 17/2/1
f 19/2/1 6/2/1 5/2/1
f 19/1/1 5/1/1 18/1/1
f 20/1/1 7/1/1 6/1/1
f 20/2/1 6/2/1 19/2/1
f 21/2/1 8/2/1 7/2/1
f 21/1/1 7/1/1 20/1/1
f 22/1/1 9/1/1 8/1/1
f 22/2/1 8/2/1 21/2/1
f 23/2/1 10/2/1 9/2/1
f 23/1/1 9/1/1 22/1/1
f 24/1/1 11/1/1 10/1/1
f 24/2/1 10/2/1 23/2/1
f 25/2/1 12/2/1 11/2/1
f 25/1/1 11/1/1 24/1/1
f 26/1/1 13/1/1 12/1/1
f 26/2/1 12/2/1 25/2/1
f 27/2/1 14/2/1 13/2/1
f 27/1/1 13/1/1 26/1/1
f 28/2/1 14/2/1 27/2/1
f 29/2/2 30/2/2 31/2/2
f 31/2/2 30/2/2 32/2/2
f 35/2/3 34/2/3 33/2/3
f 36/2/3 34/2/3 35/2/3
f 37/2/4 38/2/4 39/2/4
f 39/2/4 38/2/4 40/2/4
f 43/2/5 42/2/5 41/2/5
f 44/2/5 42/2/5 43/2/5
f 45/1/5 44/1/5 43/1/5
f 46/2/5 42/2/5 44/2/5
f 46/1/5 44/1/5 45/1/5
f 47/2/5 46/2/5 45/2/5
f 48/2/5 42/2/5 46/2/5
f 48/2/5 46/2/5 47/2/5
f 49/1/5 48/1/5 47/1/5
f 50/2/5 42/2/5 48/2/5
f 50/1/5 48/1/5 49/1/5
f 51/2/5 50/2/5 49/2/5
f 52/2/5 42/2/5 50/2/5
f 52/2/5 50/2/5 51/2/5
f 53/1/5 52/1/5 51/1/5
f 54/2/5 42/2/5 52/2/5
f 54/1/5 52/1/5 53/1/5
f 55/2/5 54/2/5 53/2/5
f 56/2/5 42/2/5 54/2/5
f 56/2/5 54/2/5 55/2/5
f 57/1/5 56/1/5 55/1/5
f 58/2/5 42/2/5 56/2/5
f 58/1/5 56/1/5 57/1/5
f 59/2/5 58/2/5 57/2/5
f 60/2/5 42/2/5 58/2/5
f 60/2/5 58/2/5 59/2/5
f 61/1/5 60/1/5 59/1/5
f 62/2/5 42/2/5 60/2/5
f 62/1/5 60/1/5 61/1/5
f 63/2/5 62/2/5 61/2/5
f 64/2/5 42/2/5 62/2/5
f 64/2/5 62/2/5 63/2/5
f 65/1/5 64/1/5 63/1/5
f 66/2/5 42/2/5 64/2/5
f 66/1/5 64/1/5 65/1/5
f 67/2/5 66/2/5 65/2/5
f 68/2/5 42/2/5 66/2/5
f 68/2/5 66/2/5 67/2/5
f 69/2/6 70/2/6 71/2/6
f 71/2/6 70/2/6 72/2/6
f 71/1/6 72/1/6 73/1/6
f 72/2/6 70/2/6 74/2/6
f 73/1/6 72/1/6 74/1/6
f 73/2/6 74/2/6 75/2/6
f 74/2/6 70/2/6 76/2/6
f 75/2/6 74/2/6 76/2/6
f 75/1/6 76/1/6 77/1/6
f 76/2/6 70/2/6 78/2/6
f 77/1/6 76/1/6 78/1/6
f 77/2/6 78/2/6 79/2/6
f 78/2/6 70/2/6 80/2/6
f 79/2/6 78/2/6 80/2/6
f 79/1/6 80/1/6 81/1/6
f 80/2/6 70/2/6 82/2/6
f 81/1/6 80/1/6 82/1/6
f 81/2/6 82/2/6 83/2/6
f 82/2/6 70/2/6 84/2/6
f 83/2/6 82/2/6 84/2/6
f 83/1/6 84/1/6 85/1/6
f 84/2/6 70/2/6 86/2/6
f 85/1/6 84/1/6 86/1/6
f 85/2/6 86/2/6 87/2/6
f 86/2/6 70/2/6 88/2/6
f 87/2/6 86/2/6 88/2/6
f 87/1/6 88/1/6 89/1/6
f 88/2/6 70/2/6 90/2/6
f 89/1/6 88/1/6 90/1/6
f 89/2/6 90/2/6 91/2/6
f 90/2/6 70/2/6 92/2/6
f 91/2/6 90/2/6 92/2/6
f 91/1/6 92/1/6 93/1/6
f 92/2/6 70/2/6 94/2/6
f 93/1/6 92/1/6 94/1/6
f 93/2/6 94/2/6 95/2/6
f 94/2/6 70/2/6 96/2/6
f 95/2/6 94/2/6 96/2/6
