# MagicaVoxel @ Ephtracy

# group
o 

# material
mtllib car_redHot.mtl
usemtl palette

# normals
vn -1 0 0
vn 1 0 0
vn 0 0 1
vn 0 0 -1
vn 0 -1 0
vn 0 1 0

# texcoords
vt 0.228516 0.5
vt 0.255859 0.5
vt 0.544922 0.5
vt 0.958984 0.5
vt 0.962891 0.5
vt 0.966797 0.5
vt 0.978516 0.5
vt 0.994141 0.5

# verts
v 0.1 3.2 -1.3
v 0.1 3.2 -1.6
v 0.1 3.2 -2.5
v 0.1 3.2 -2.8
v 0.1 3.4 -1.3
v 0.1 3.4 -1.6
v 0.1 3.4 -2.5
v 0.1 3.4 -2.8
v 0.1 3.6 -1.3
v 0.1 3.6 -1.4
v 0.1 3.6 -1.6
v 0.1 3.6 -2.5
v 0.1 3.6 -2.7
v 0.1 3.6 -2.8
v 0.1 3.8 -1.4
v 0.1 3.8 -1.6
v 0.1 3.8 -2.5
v 0.1 3.8 -2.7
v 0.1 4 -1.3
v 0.1 4 -1.6
v 0.1 4 -2.5
v 0.1 4 -2.8
v 0.3 4 -1.6
v 0.3 4 -2.5
v 0.3 4.2 -1.6
v 0.3 4.2 -2.5
v 1.4 3.7 -1.1
v 1.4 3.7 -1.3
v 1.4 3.7 -2.8
v 1.4 3.7 -3
v 1.4 3.8 -1.3
v 1.4 3.8 -2.8
v 1.4 4 -1.1
v 1.4 4 -1.3
v 1.4 4 -1.6
v 1.4 4 -2.5
v 1.4 4 -2.8
v 1.4 4 -3
v 1.4 4.3 -1.6
v 1.4 4.3 -2.5
v 1.4 4.5 -1.3
v 1.4 4.5 -2.8
v 2.7 3.4 -1.3
v 2.7 3.4 -1.5
v 2.7 3.4 -2.6
v 2.7 3.4 -2.8
v 2.7 3.6 -1.3
v 2.7 3.6 -1.5
v 2.7 3.6 -2.6
v 2.7 3.6 -2.8
v 3.4 4 -2
v 3.4 4 -2.1
v 3.4 4.1 -2
v 3.4 4.1 -2.1
v 3.5 3.2 -1.6
v 3.5 3.2 -2.5
v 3.5 3.4 -1.6
v 3.5 3.4 -2.5
v 3.5 4.1 -2
v 3.5 4.1 -2.1
v 3.5 4.2 -2
v 3.5 4.2 -2.1
v 3.6 4.2 -1.2
v 3.6 4.2 -2
v 3.6 4.2 -2.1
v 3.6 4.2 -2.9
v 3.6 4.4 -1.2
v 3.6 4.4 -2.9
v 1.1 4 -1.6
v 1.1 4 -2.5
v 1.1 4.2 -1.6
v 1.1 4.2 -2.5
v 1.9 3.4 -1.3
v 1.9 3.4 -1.5
v 1.9 3.4 -2.6
v 1.9 3.4 -2.8
v 1.9 3.6 -1.3
v 1.9 3.6 -1.5
v 1.9 3.6 -2.6
v 1.9 3.6 -2.8
v 1.9 3.7 -1.1
v 1.9 3.7 -1.3
v 1.9 3.7 -2.8
v 1.9 3.7 -3
v 1.9 4 -1.1
v 1.9 4 -1.3
v 1.9 4 -2.8
v 1.9 4 -3
v 3.1 4 -1.3
v 3.1 4 -1.5
v 3.1 4 -1.6
v 3.1 4 -2.5
v 3.1 4 -2.6
v 3.1 4 -2.8
v 3.1 4.3 -1.5
v 3.1 4.3 -2.6
v 3.1 4.5 -1.3
v 3.1 4.5 -2.8
v 3.6 4 -2
v 3.6 4 -2.1
v 3.6 4.1 -2
v 3.6 4.1 -2.1
v 3.7 3.2 -1.3
v 3.7 3.2 -1.7
v 3.7 3.2 -1.9
v 3.7 3.2 -2.2
v 3.7 3.2 -2.4
v 3.7 3.2 -2.8
v 3.7 3.4 -1.3
v 3.7 3.4 -1.7
v 3.7 3.4 -1.9
v 3.7 3.4 -2.2
v 3.7 3.4 -2.4
v 3.7 3.4 -2.8
v 3.7 3.6 -1.3
v 3.7 3.6 -1.6
v 3.7 3.6 -2.5
v 3.7 3.6 -2.8
v 3.7 4 -1.3
v 3.7 4 -1.6
v 3.7 4 -2.5
v 3.7 4 -2.8
v 3.7 4.1 -2
v 3.7 4.1 -2.1
v 3.7 4.2 -2
v 3.7 4.2 -2.1
v 3.8 4.2 -1.2
v 3.8 4.2 -2.9
v 3.8 4.4 -1.2
v 3.8 4.4 -2.9
v 4 3.2 -1.7
v 4 3.2 -1.9
v 4 3.2 -2.2
v 4 3.2 -2.4
v 4 3.4 -1.7
v 4 3.4 -1.9
v 4 3.4 -2.2
v 4 3.4 -2.4
v 1.4 3.7 -1.1
v 1.4 4 -1.1
v 1.9 3.7 -1.1
v 1.9 4 -1.1
v 3.6 4.2 -1.2
v 3.6 4.4 -1.2
v 3.8 4.2 -1.2
v 3.8 4.4 -1.2
v 0.1 3.2 -1.3
v 0.1 3.4 -1.3
v 0.1 3.6 -1.3
v 0.1 4 -1.3
v 0.8 3.2 -1.3
v 0.8 3.4 -1.3
v 0.8 3.6 -1.3
v 0.8 3.8 -1.3
v 1 3.4 -1.3
v 1 3.6 -1.3
v 1.2 3.4 -1.3
v 1.2 3.6 -1.3
v 1.4 3.2 -1.3
v 1.4 3.4 -1.3
v 1.4 3.6 -1.3
v 1.4 3.7 -1.3
v 1.4 3.8 -1.3
v 1.4 4 -1.3
v 1.4 4.5 -1.3
v 1.6 4 -1.3
v 1.6 4.3 -1.3
v 1.9 3.4 -1.3
v 1.9 3.6 -1.3
v 1.9 3.7 -1.3
v 1.9 4 -1.3
v 2.7 3.4 -1.3
v 2.7 3.6 -1.3
v 2.9 3.2 -1.3
v 2.9 3.4 -1.3
v 2.9 3.6 -1.3
v 2.9 3.8 -1.3
v 2.9 4 -1.3
v 2.9 4.3 -1.3
v 3.1 3.4 -1.3
v 3.1 3.6 -1.3
v 3.1 4 -1.3
v 3.1 4.5 -1.3
v 3.3 3.4 -1.3
v 3.3 3.6 -1.3
v 3.5 3.2 -1.3
v 3.5 3.4 -1.3
v 3.5 3.6 -1.3
v 3.5 3.8 -1.3
v 3.7 3.2 -1.3
v 3.7 3.4 -1.3
v 3.7 3.6 -1.3
v 3.7 4 -1.3
v 1.9 3.4 -1.5
v 1.9 3.6 -1.5
v 2.7 3.4 -1.5
v 2.7 3.6 -1.5
v 0.3 4 -1.6
v 0.3 4.2 -1.6
v 1.1 4 -1.6
v 1.1 4.2 -1.6
v 3.7 3.2 -1.7
v 3.7 3.4 -1.7
v 4 3.2 -1.7
v 4 3.4 -1.7
v 3.4 4 -2
v 3.4 4.1 -2
v 3.5 4.1 -2
v 3.5 4.2 -2
v 3.6 4 -2
v 3.6 4.1 -2
v 3.6 4.2 -2
v 3.7 4.1 -2
v 3.7 4.2 -2
v 3.7 3.2 -2.2
v 3.7 3.4 -2.2
v 4 3.2 -2.2
v 4 3.4 -2.2
v 0.1 3.2 -2.5
v 0.1 3.4 -2.5
v 0.2 3.4 -2.5
v 3.5 3.2 -2.5
v 3.5 3.4 -2.5
v 0.1 3.2 -1.6
v 0.1 3.4 -1.6
v 0.2 3.4 -1.6
v 3.5 3.2 -1.6
v 3.5 3.4 -1.6
v 3.7 3.2 -1.9
v 3.7 3.4 -1.9
v 4 3.2 -1.9
v 4 3.4 -1.9
v 3.4 4 -2.1
v 3.4 4.1 -2.1
v 3.5 4.1 -2.1
v 3.5 4.2 -2.1
v 3.6 4 -2.1
v 3.6 4.1 -2.1
v 3.6 4.2 -2.1
v 3.7 4.1 -2.1
v 3.7 4.2 -2.1
v 3.7 3.2 -2.4
v 3.7 3.4 -2.4
v 4 3.2 -2.4
v 4 3.4 -2.4
v 0.3 4 -2.5
v 0.3 4.2 -2.5
v 1.1 4 -2.5
v 1.1 4.2 -2.5
v 1.9 3.4 -2.6
v 1.9 3.6 -2.6
v 2.7 3.4 -2.6
v 2.7 3.6 -2.6
v 0.1 3.2 -2.8
v 0.1 3.4 -2.8
v 0.1 3.6 -2.8
v 0.1 4 -2.8
v 0.8 3.2 -2.8
v 0.8 3.4 -2.8
v 0.8 3.6 -2.8
v 0.8 3.8 -2.8
v 1 3.4 -2.8
v 1 3.6 -2.8
v 1.2 3.4 -2.8
v 1.2 3.6 -2.8
v 1.4 3.2 -2.8
v 1.4 3.4 -2.8
v 1.4 3.6 -2.8
v 1.4 3.7 -2.8
v 1.4 3.8 -2.8
v 1.4 4 -2.8
v 1.4 4.5 -2.8
v 1.6 4 -2.8
v 1.6 4.3 -2.8
v 1.9 3.4 -2.8
v 1.9 3.6 -2.8
v 1.9 3.7 -2.8
v 1.9 4 -2.8
v 2.7 3.4 -2.8
v 2.7 3.6 -2.8
v 2.9 3.2 -2.8
v 2.9 3.4 -2.8
v 2.9 3.6 -2.8
v 2.9 3.8 -2.8
v 2.9 4 -2.8
v 2.9 4.3 -2.8
v 3.1 3.4 -2.8
v 3.1 3.6 -2.8
v 3.1 4 -2.8
v 3.1 4.5 -2.8
v 3.3 3.4 -2.8
v 3.3 3.6 -2.8
v 3.5 3.2 -2.8
v 3.5 3.4 -2.8
v 3.5 3.6 -2.8
v 3.5 3.8 -2.8
v 3.7 3.2 -2.8
v 3.7 3.4 -2.8
v 3.7 3.6 -2.8
v 3.7 4 -2.8
v 3.6 4.2 -2.9
v 3.6 4.4 -2.9
v 3.8 4.2 -2.9
v 3.8 4.4 -2.9
v 1.4 3.7 -3
v 1.4 4 -3
v 1.9 3.7 -3
v 1.9 4 -3
v 0.1 3.2 -1.3
v 0.8 3.2 -1.3
v 1.4 3.2 -1.3
v 2.9 3.2 -1.3
v 3.5 3.2 -1.3
v 3.7 3.2 -1.3
v 0.8 3.2 -1.5
v 1.4 3.2 -1.5
v 2.9 3.2 -1.5
v 3.5 3.2 -1.5
v 0.1 3.2 -1.6
v 3.5 3.2 -1.6
v 3.7 3.2 -1.7
v 4 3.2 -1.7
v 3.7 3.2 -1.9
v 4 3.2 -1.9
v 3.7 3.2 -2.2
v 4 3.2 -2.2
v 3.7 3.2 -2.4
v 4 3.2 -2.4
v 0.1 3.2 -2.5
v 3.5 3.2 -2.5
v 0.8 3.2 -2.6
v 1.4 3.2 -2.6
v 2.9 3.2 -2.6
v 3.5 3.2 -2.6
v 0.1 3.2 -2.8
v 0.8 3.2 -2.8
v 1.4 3.2 -2.8
v 2.9 3.2 -2.8
v 3.5 3.2 -2.8
v 3.7 3.2 -2.8
v 0.1 3.4 -1.6
v 0.2 3.4 -1.6
v 3.5 3.4 -1.6
v 0.1 3.4 -2.5
v 0.2 3.4 -2.5
v 3.5 3.4 -2.5
v 1.9 3.6 -1.3
v 2.7 3.6 -1.3
v 1.9 3.6 -1.5
v 2.7 3.6 -1.5
v 1.9 3.6 -2.6
v 2.7 3.6 -2.6
v 1.9 3.6 -2.8
v 2.7 3.6 -2.8
v 1.4 3.7 -1.1
v 1.9 3.7 -1.1
v 1.4 3.7 -1.3
v 1.9 3.7 -1.3
v 1.4 3.7 -2.8
v 1.9 3.7 -2.8
v 1.4 3.7 -3
v 1.9 3.7 -3
v 3.6 4.1 -2
v 3.7 4.1 -2
v 3.6 4.1 -2.1
v 3.7 4.1 -2.1
v 3.6 4.2 -1.2
v 3.8 4.2 -1.2
v 3.6 4.2 -2
v 3.7 4.2 -2
v 3.6 4.2 -2.1
v 3.7 4.2 -2.1
v 3.6 4.2 -2.9
v 3.8 4.2 -2.9
v 1.9 3.4 -1.3
v 2.7 3.4 -1.3
v 1.9 3.4 -1.5
v 2.7 3.4 -1.5
v 3.7 3.4 -1.7
v 4 3.4 -1.7
v 3.7 3.4 -1.9
v 4 3.4 -1.9
v 3.7 3.4 -2.2
v 4 3.4 -2.2
v 3.7 3.4 -2.4
v 4 3.4 -2.4
v 1.9 3.4 -2.6
v 2.7 3.4 -2.6
v 1.9 3.4 -2.8
v 2.7 3.4 -2.8
v 1.4 4 -1.1
v 1.9 4 -1.1
v 0.1 4 -1.3
v 1.4 4 -1.3
v 1.6 4 -1.3
v 1.9 4 -1.3
v 3.1 4 -1.3
v 3.7 4 -1.3
v 3.1 4 -1.5
v 0.1 4 -1.6
v 0.3 4 -1.6
v 1.1 4 -1.6
v 1.4 4 -1.6
v 3.1 4 -1.6
v 3.7 4 -1.6
v 3.4 4 -2
v 3.6 4 -2
v 3.4 4 -2.1
v 3.6 4 -2.1
v 0.1 4 -2.5
v 0.3 4 -2.5
v 1.1 4 -2.5
v 1.4 4 -2.5
v 3.1 4 -2.5
v 3.7 4 -2.5
v 3.1 4 -2.6
v 0.1 4 -2.8
v 1.4 4 -2.8
v 1.6 4 -2.8
v 1.9 4 -2.8
v 3.1 4 -2.8
v 3.7 4 -2.8
v 1.4 4 -3
v 1.9 4 -3
v 3.4 4.1 -2
v 3.5 4.1 -2
v 3.4 4.1 -2.1
v 3.5 4.1 -2.1
v 0.3 4.2 -1.6
v 1.1 4.2 -1.6
v 3.5 4.2 -2
v 3.6 4.2 -2
v 3.5 4.2 -2.1
v 3.6 4.2 -2.1
v 0.3 4.2 -2.5
v 1.1 4.2 -2.5
v 3.6 4.4 -1.2
v 3.8 4.4 -1.2
v 3.6 4.4 -2.9
v 3.8 4.4 -2.9
v 1.4 4.5 -1.3
v 3.1 4.5 -1.3
v 1.4 4.5 -2.8
v 3.1 4.5 -2.8

# faces
f 5/7/1 2/7/1 1/7/1
f 6/7/1 2/7/1 5/7/1
f 7/7/1 4/7/1 3/7/1
f 8/7/1 4/7/1 7/7/1
f 9/2/1 6/2/1 5/2/1
f 9/2/1 7/2/1 6/2/1
f 9/2/1 8/2/1 7/2/1
f 10/2/1 8/2/1 9/2/1
f 11/2/1 8/2/1 10/2/1
f 12/2/1 8/2/1 11/2/1
f 13/2/1 8/2/1 12/2/1
f 14/2/1 8/2/1 13/2/1
f 15/1/1 10/1/1 9/1/1
f 15/6/1 11/6/1 10/6/1
f 16/2/1 12/2/1 11/2/1
f 16/6/1 11/6/1 15/6/1
f 17/6/1 13/6/1 12/6/1
f 17/2/1 12/2/1 16/2/1
f 18/1/1 14/1/1 13/1/1
f 18/6/1 13/6/1 17/6/1
f 19/1/1 15/1/1 9/1/1
f 19/1/1 16/1/1 15/1/1
f 20/2/1 17/2/1 16/2/1
f 20/1/1 16/1/1 19/1/1
f 21/1/1 18/1/1 17/1/1
f 21/2/1 17/2/1 20/2/1
f 22/1/1 14/1/1 18/1/1
f 22/1/1 18/1/1 21/1/1
f 25/2/1 24/2/1 23/2/1
f 26/2/1 24/2/1 25/2/1
f 31/2/1 28/2/1 27/2/1
f 32/2/1 30/2/1 29/2/1
f 33/2/1 31/2/1 27/2/1
f 34/2/1 31/2/1 33/2/1
f 37/2/1 30/2/1 32/2/1
f 38/2/1 30/2/1 37/2/1
f 39/8/1 36/8/1 35/8/1
f 39/4/1 35/4/1 34/4/1
f 40/4/1 37/4/1 36/4/1
f 40/8/1 36/8/1 39/8/1
f 41/4/1 39/4/1 34/4/1
f 41/4/1 40/4/1 39/4/1
f 42/4/1 37/4/1 40/4/1
f 42/4/1 40/4/1 41/4/1
f 47/2/1 44/2/1 43/2/1
f 48/2/1 44/2/1 47/2/1
f 49/2/1 46/2/1 45/2/1
f 50/2/1 46/2/1 49/2/1
f 53/7/1 52/7/1 51/7/1
f 54/7/1 52/7/1 53/7/1
f 57/7/1 56/7/1 55/7/1
f 58/7/1 56/7/1 57/7/1
f 61/7/1 60/7/1 59/7/1
f 62/7/1 60/7/1 61/7/1
f 67/7/1 64/7/1 63/7/1
f 67/7/1 66/7/1 65/7/1
f 67/7/1 65/7/1 64/7/1
f 68/7/1 66/7/1 67/7/1
f 69/2/2 70/2/2 71/2/2
f 71/2/2 70/2/2 72/2/2
f 73/2/2 74/2/2 77/2/2
f 77/2/2 74/2/2 78/2/2
f 75/2/2 76/2/2 79/2/2
f 79/2/2 76/2/2 80/2/2
f 81/2/2 82/2/2 85/2/2
f 85/2/2 82/2/2 86/2/2
f 83/2/2 84/2/2 87/2/2
f 87/2/2 84/2/2 88/2/2
f 89/4/2 90/4/2 95/4/2
f 90/8/2 91/8/2 95/8/2
f 92/8/2 93/8/2 95/8/2
f 91/8/2 92/8/2 95/8/2
f 93/4/2 94/4/2 96/4/2
f 95/8/2 93/8/2 96/8/2
f 89/4/2 95/4/2 97/4/2
f 95/4/2 96/4/2 97/4/2
f 96/4/2 94/4/2 98/4/2
f 97/4/2 96/4/2 98/4/2
f 99/7/2 100/7/2 101/7/2
f 101/7/2 100/7/2 102/7/2
f 103/7/2 104/7/2 109/7/2
f 109/7/2 104/7/2 110/7/2
f 105/7/2 106/7/2 111/7/2
f 111/7/2 106/7/2 112/7/2
f 107/7/2 108/7/2 113/7/2
f 113/7/2 108/7/2 114/7/2
f 111/2/2 112/2/2 115/2/2
f 109/2/2 110/2/2 115/2/2
f 113/2/2 114/2/2 115/2/2
f 112/2/2 113/2/2 115/2/2
f 110/2/2 111/2/2 115/2/2
f 115/2/2 114/2/2 116/2/2
f 116/2/2 114/2/2 117/2/2
f 117/2/2 114/2/2 118/2/2
f 115/1/2 116/1/2 119/1/2
f 116/2/2 117/2/2 120/2/2
f 119/1/2 116/1/2 120/1/2
f 117/1/2 118/1/2 121/1/2
f 120/2/2 117/2/2 121/2/2
f 121/1/2 118/1/2 122/1/2
f 123/7/2 124/7/2 125/7/2
f 125/7/2 124/7/2 126/7/2
f 127/7/2 128/7/2 129/7/2
f 129/7/2 128/7/2 130/7/2
f 131/7/2 132/7/2 135/7/2
f 135/7/2 132/7/2 136/7/2
f 133/7/2 134/7/2 137/7/2
f 137/7/2 134/7/2 138/7/2
f 141/2/3 140/2/3 139/2/3
f 142/2/3 140/2/3 141/2/3
f 145/7/3 144/7/3 143/7/3
f 146/7/3 144/7/3 145/7/3
f 151/7/3 148/7/3 147/7/3
f 152/2/3 149/2/3 148/2/3
f 152/7/3 148/7/3 151/7/3
f 153/1/3 150/1/3 149/1/3
f 153/2/3 149/2/3 152/2/3
f 154/1/3 150/1/3 153/1/3
f 155/8/3 152/8/3 151/8/3
f 155/8/3 153/8/3 152/8/3
f 155/8/3 154/8/3 153/8/3
f 156/8/3 154/8/3 155/8/3
f 157/8/3 155/8/3 151/8/3
f 157/5/3 156/5/3 155/5/3
f 158/8/3 154/8/3 156/8/3
f 158/5/3 156/5/3 157/5/3
f 159/8/3 157/8/3 151/8/3
f 159/8/3 158/8/3 157/8/3
f 160/8/3 158/8/3 159/8/3
f 161/8/3 154/8/3 158/8/3
f 161/8/3 158/8/3 160/8/3
f 162/8/3 154/8/3 161/8/3
f 163/1/3 150/1/3 154/1/3
f 163/8/3 154/8/3 162/8/3
f 164/1/3 150/1/3 163/1/3
f 166/4/3 165/4/3 164/4/3
f 167/4/3 165/4/3 166/4/3
f 168/7/3 160/7/3 159/7/3
f 168/2/3 161/2/3 160/2/3
f 169/1/3 162/1/3 161/1/3
f 169/2/3 161/2/3 168/2/3
f 170/1/3 162/1/3 169/1/3
f 171/8/3 167/8/3 166/8/3
f 172/7/3 168/7/3 159/7/3
f 173/1/3 171/1/3 170/1/3
f 173/1/3 170/1/3 169/1/3
f 174/7/3 172/7/3 159/7/3
f 175/2/3 173/2/3 172/2/3
f 175/7/3 172/7/3 174/7/3
f 176/1/3 171/1/3 173/1/3
f 176/2/3 173/2/3 175/2/3
f 177/1/3 171/1/3 176/1/3
f 178/8/3 167/8/3 171/8/3
f 178/1/3 171/1/3 177/1/3
f 179/4/3 165/4/3 167/4/3
f 179/8/3 167/8/3 178/8/3
f 180/8/3 177/8/3 176/8/3
f 180/8/3 175/8/3 174/8/3
f 180/8/3 176/8/3 175/8/3
f 181/8/3 177/8/3 180/8/3
f 182/1/3 178/1/3 177/1/3
f 182/4/3 179/4/3 178/4/3
f 183/4/3 165/4/3 179/4/3
f 183/4/3 179/4/3 182/4/3
f 184/5/3 181/5/3 180/5/3
f 184/8/3 180/8/3 174/8/3
f 185/8/3 177/8/3 181/8/3
f 185/5/3 181/5/3 184/5/3
f 186/8/3 184/8/3 174/8/3
f 186/8/3 185/8/3 184/8/3
f 187/8/3 185/8/3 186/8/3
f 188/8/3 177/8/3 185/8/3
f 188/8/3 185/8/3 187/8/3
f 189/1/3 182/1/3 177/1/3
f 189/8/3 177/8/3 188/8/3
f 190/7/3 187/7/3 186/7/3
f 191/2/3 188/2/3 187/2/3
f 191/7/3 187/7/3 190/7/3
f 192/1/3 189/1/3 188/1/3
f 192/2/3 188/2/3 191/2/3
f 193/1/3 182/1/3 189/1/3
f 193/1/3 189/1/3 192/1/3
f 196/2/3 195/2/3 194/2/3
f 197/2/3 195/2/3 196/2/3
f 200/2/3 199/2/3 198/2/3
f 201/2/3 199/2/3 200/2/3
f 204/7/3 203/7/3 202/7/3
f 205/7/3 203/7/3 204/7/3
f 208/7/3 207/7/3 206/7/3
f 210/7/3 208/7/3 206/7/3
f 210/7/3 209/7/3 208/7/3
f 211/7/3 209/7/3 210/7/3
f 212/7/3 209/7/3 211/7/3
f 213/7/3 212/7/3 211/7/3
f 214/7/3 212/7/3 213/7/3
f 217/7/3 216/7/3 215/7/3
f 218/7/3 216/7/3 217/7/3
f 221/7/3 220/7/3 219/7/3
f 222/7/3 221/7/3 219/7/3
f 223/7/3 221/7/3 222/7/3
f 224/7/4 225/7/4 226/7/4
f 224/7/4 226/7/4 227/7/4
f 227/7/4 226/7/4 228/7/4
f 229/7/4 230/7/4 231/7/4
f 231/7/4 230/7/4 232/7/4
f 233/7/4 234/7/4 235/7/4
f 233/7/4 235/7/4 237/7/4
f 235/7/4 236/7/4 237/7/4
f 237/7/4 236/7/4 238/7/4
f 238/7/4 236/7/4 239/7/4
f 238/7/4 239/7/4 240/7/4
f 240/7/4 239/7/4 241/7/4
f 242/7/4 243/7/4 244/7/4
f 244/7/4 243/7/4 245/7/4
f 246/2/4 247/2/4 248/2/4
f 248/2/4 247/2/4 249/2/4
f 250/2/4 251/2/4 252/2/4
f 252/2/4 251/2/4 253/2/4
f 254/7/4 255/7/4 258/7/4
f 255/2/4 256/2/4 259/2/4
f 258/7/4 255/7/4 259/7/4
f 256/1/4 257/1/4 260/1/4
f 259/2/4 256/2/4 260/2/4
f 260/1/4 257/1/4 261/1/4
f 258/8/4 259/8/4 262/8/4
f 259/8/4 260/8/4 262/8/4
f 260/8/4 261/8/4 262/8/4
f 262/8/4 261/8/4 263/8/4
f 258/8/4 262/8/4 264/8/4
f 262/5/4 263/5/4 264/5/4
f 263/8/4 261/8/4 265/8/4
f 264/5/4 263/5/4 265/5/4
f 258/8/4 264/8/4 266/8/4
f 264/8/4 265/8/4 266/8/4
f 266/8/4 265/8/4 267/8/4
f 265/8/4 261/8/4 268/8/4
f 267/8/4 265/8/4 268/8/4
f 268/8/4 261/8/4 269/8/4
f 261/1/4 257/1/4 270/1/4
f 269/8/4 261/8/4 270/8/4
f 270/1/4 257/1/4 271/1/4
f 271/4/4 272/4/4 273/4/4
f 273/4/4 272/4/4 274/4/4
f 266/7/4 267/7/4 275/7/4
f 267/2/4 268/2/4 275/2/4
f 268/1/4 269/1/4 276/1/4
f 275/2/4 268/2/4 276/2/4
f 276/1/4 269/1/4 277/1/4
f 273/8/4 274/8/4 278/8/4
f 266/7/4 275/7/4 279/7/4
f 277/1/4 278/1/4 280/1/4
f 276/1/4 277/1/4 280/1/4
f 266/7/4 279/7/4 281/7/4
f 279/2/4 280/2/4 282/2/4
f 281/7/4 279/7/4 282/7/4
f 280/1/4 278/1/4 283/1/4
f 282/2/4 280/2/4 283/2/4
f 283/1/4 278/1/4 284/1/4
f 278/8/4 274/8/4 285/8/4
f 284/1/4 278/1/4 285/1/4
f 274/4/4 272/4/4 286/4/4
f 285/8/4 274/8/4 286/8/4
f 283/8/4 284/8/4 287/8/4
f 281/8/4 282/8/4 287/8/4
f 282/8/4 283/8/4 287/8/4
f 287/8/4 284/8/4 288/8/4
f 284/1/4 285/1/4 289/1/4
f 285/4/4 286/4/4 289/4/4
f 286/4/4 272/4/4 290/4/4
f 289/4/4 286/4/4 290/4/4
f 287/5/4 288/5/4 291/5/4
f 281/8/4 287/8/4 291/8/4
f 288/8/4 284/8/4 292/8/4
f 291/5/4 288/5/4 292/5/4
f 281/8/4 291/8/4 293/8/4
f 291/8/4 292/8/4 293/8/4
f 293/8/4 292/8/4 294/8/4
f 292/8/4 284/8/4 295/8/4
f 294/8/4 292/8/4 295/8/4
f 284/1/4 289/1/4 296/1/4
f 295/8/4 284/8/4 296/8/4
f 293/7/4 294/7/4 297/7/4
f 294/2/4 295/2/4 298/2/4
f 297/7/4 294/7/4 298/7/4
f 295/1/4 296/1/4 299/1/4
f 298/2/4 295/2/4 299/2/4
f 296/1/4 289/1/4 300/1/4
f 299/1/4 296/1/4 300/1/4
f 301/7/4 302/7/4 303/7/4
f 303/7/4 302/7/4 304/7/4
f 305/2/4 306/2/4 307/2/4
f 307/2/4 306/2/4 308/2/4
f 315/7/5 310/7/5 309/7/5
f 315/8/5 311/8/5 310/8/5
f 316/7/5 312/7/5 311/7/5
f 316/8/5 311/8/5 315/8/5
f 317/8/5 313/8/5 312/8/5
f 317/7/5 312/7/5 316/7/5
f 318/7/5 314/7/5 313/7/5
f 318/8/5 313/8/5 317/8/5
f 319/7/5 317/7/5 316/7/5
f 319/7/5 316/7/5 315/7/5
f 319/7/5 318/7/5 317/7/5
f 319/7/5 315/7/5 309/7/5
f 320/7/5 314/7/5 318/7/5
f 320/7/5 318/7/5 319/7/5
f 321/7/5 314/7/5 320/7/5
f 323/7/5 321/7/5 320/7/5
f 323/7/5 322/7/5 321/7/5
f 324/7/5 322/7/5 323/7/5
f 325/7/5 323/7/5 320/7/5
f 327/7/5 325/7/5 320/7/5
f 327/7/5 326/7/5 325/7/5
f 328/7/5 326/7/5 327/7/5
f 330/7/5 327/7/5 320/7/5
f 331/7/5 330/7/5 329/7/5
f 332/7/5 330/7/5 331/7/5
f 333/7/5 330/7/5 332/7/5
f 334/7/5 327/7/5 330/7/5
f 334/7/5 330/7/5 333/7/5
f 335/7/5 331/7/5 329/7/5
f 336/8/5 332/8/5 331/8/5
f 336/7/5 331/7/5 335/7/5
f 337/7/5 333/7/5 332/7/5
f 337/8/5 332/8/5 336/8/5
f 338/8/5 334/8/5 333/8/5
f 338/7/5 333/7/5 337/7/5
f 339/7/5 327/7/5 334/7/5
f 339/8/5 334/8/5 338/8/5
f 340/7/5 327/7/5 339/7/5
f 344/2/5 342/2/5 341/2/5
f 345/7/5 343/7/5 342/7/5
f 345/2/5 342/2/5 344/2/5
f 346/7/5 343/7/5 345/7/5
f 349/1/5 348/1/5 347/1/5
f 350/1/5 348/1/5 349/1/5
f 353/1/5 352/1/5 351/1/5
f 354/1/5 352/1/5 353/1/5
f 357/2/5 356/2/5 355/2/5
f 358/2/5 356/2/5 357/2/5
f 361/2/5 360/2/5 359/2/5
f 362/2/5 360/2/5 361/2/5
f 365/7/5 364/7/5 363/7/5
f 366/7/5 364/7/5 365/7/5
f 369/7/5 368/7/5 367/7/5
f 370/7/5 368/7/5 369/7/5
f 372/7/5 368/7/5 370/7/5
f 373/7/5 372/7/5 371/7/5
f 374/7/5 368/7/5 372/7/5
f 374/7/5 372/7/5 373/7/5
f 375/7/6 376/7/6 377/7/6
f 377/7/6 376/7/6 378/7/6
f 379/7/6 380/7/6 381/7/6
f 381/7/6 380/7/6 382/7/6
f 383/7/6 384/7/6 385/7/6
f 385/7/6 384/7/6 386/7/6
f 387/7/6 388/7/6 389/7/6
f 389/7/6 388/7/6 390/7/6
f 391/2/6 392/2/6 394/2/6
f 394/2/6 392/2/6 395/2/6
f 395/2/6 392/2/6 396/2/6
f 397/1/6 398/1/6 399/1/6
f 393/1/6 394/1/6 400/1/6
f 400/1/6 394/1/6 401/1/6
f 401/1/6 394/1/6 402/1/6
f 402/1/6 394/1/6 403/1/6
f 399/1/6 398/1/6 404/1/6
f 404/1/6 398/1/6 405/1/6
f 404/2/6 405/2/6 406/2/6
f 406/2/6 405/2/6 407/2/6
f 404/2/6 406/2/6 408/2/6
f 407/2/6 405/2/6 409/2/6
f 400/2/6 401/2/6 410/2/6
f 410/2/6 401/2/6 411/2/6
f 402/2/6 403/2/6 412/2/6
f 412/2/6 403/2/6 413/2/6
f 408/2/6 409/2/6 414/2/6
f 404/2/6 408/2/6 414/2/6
f 409/2/6 405/2/6 415/2/6
f 414/2/6 409/2/6 415/2/6
f 414/1/6 415/1/6 416/1/6
f 410/1/6 411/1/6 417/1/6
f 412/1/6 413/1/6 417/1/6
f 411/1/6 412/1/6 417/1/6
f 417/1/6 413/1/6 418/1/6
f 416/1/6 415/1/6 421/1/6
f 421/1/6 415/1/6 422/1/6
f 419/2/6 420/2/6 423/2/6
f 418/2/6 419/2/6 423/2/6
f 423/2/6 420/2/6 424/2/6
f 425/7/6 426/7/6 427/7/6
f 427/7/6 426/7/6 428/7/6
f 431/7/6 432/7/6 433/7/6
f 433/7/6 432/7/6 434/7/6
f 429/2/6 430/2/6 435/2/6
f 435/2/6 430/2/6 436/2/6
f 437/7/6 438/7/6 439/7/6
f 439/7/6 438/7/6 440/7/6
f 441/4/6 442/4/6 443/4/6
f 443/4/6 442/4/6 444/4/6
